<?xml version="1.0" standalone="no"?>
<!DOCTYPE svg PUBLIC "-//W3C//DTD SVG 20010904//EN"
 "http://www.w3.org/TR/2001/REC-SVG-20010904/DTD/svg10.dtd">
<svg version="1.0" xmlns="http://www.w3.org/2000/svg"
 width="971.000000pt" height="971.000000pt" viewBox="0 0 971.000000 971.000000"
 preserveAspectRatio="xMidYMid meet">
<metadata>
Created by potrace 1.11, written by Peter Selinger 2001-2013
</metadata>
<g transform="translate(0.000000,971.000000) scale(0.100000,-0.100000)"
fill="#000000" stroke="none">
<path d="M3923 9675 c-22 -23 -51 -40 -85 -49 -67 -19 -91 -16 -98 15 -5 21
-11 24 -45 21 -22 -2 -63 -17 -93 -33 -29 -17 -59 -28 -67 -25 -8 3 -18 -1
-22 -9 -5 -7 -26 -14 -48 -15 -60 -3 -62 -1 -35 20 l25 20 -60 -5 c-56 -6 -58
-5 -30 8 42 19 15 31 -37 16 -54 -16 -53 -15 -38 -34 14 -17 14 -17 -16 -20
-12 -1 -47 -13 -78 -26 -46 -18 -59 -21 -65 -10 -6 8 -17 11 -32 7 l-24 -7 21
18 c12 10 36 26 53 35 36 20 49 44 32 61 -10 9 -15 8 -24 -3 -7 -9 -28 -22
-47 -30 -63 -24 -92 -50 -87 -76 2 -15 -2 -25 -12 -30 -24 -10 -121 -12 -121
-2 0 10 -43 -9 -100 -45 -37 -23 -40 -27 -17 -21 25 6 28 4 25 -12 -4 -21 -39
-26 -75 -11 -31 14 -83 -11 -83 -40 0 -23 -49 -88 -50 -65 0 16 -20 16 -20 -1
0 -17 -47 -40 -55 -27 -3 5 5 16 17 24 22 16 22 16 -12 17 -52 2 -63 -1 -82
-21 -9 -10 -23 -20 -30 -23 -10 -3 -8 -10 7 -27 11 -13 14 -20 7 -16 -6 4 -45
4 -84 0 -41 -4 -65 -10 -55 -13 15 -6 7 -15 -42 -54 -72 -55 -112 -107 -157
-202 l-33 -70 19 -31 c12 -22 15 -35 8 -42 -6 -6 -10 -22 -10 -37 0 -25 -3
-26 -34 -20 -40 7 -70 -8 -137 -68 -34 -31 -46 -48 -41 -60 8 -21 20 -22 28
-2 3 8 10 15 17 15 6 0 30 16 53 35 43 35 87 57 139 69 26 6 28 5 21 -16 -5
-18 2 -14 40 19 51 45 96 65 115 53 13 -7 -5 -19 -39 -26 -8 -2 -25 -16 -37
-31 -37 -46 -27 -89 12 -53 20 19 22 19 21 3 -5 -56 -67 -103 -135 -103 -15 0
-21 -6 -21 -23 0 -25 -28 -57 -49 -57 -8 0 -9 5 -2 19 9 16 8 18 -7 14 -25 -6
-68 -41 -60 -48 3 -4 16 -2 27 5 14 7 21 7 21 0 0 -18 -69 -87 -99 -100 -18
-7 -28 -17 -25 -25 9 -22 -46 -66 -124 -102 -41 -18 -99 -51 -130 -73 -53 -38
-92 -51 -92 -31 0 6 26 31 58 57 31 25 59 51 61 57 6 17 -49 -2 -93 -32 -61
-41 -63 -42 -69 -27 -7 17 67 100 96 110 20 6 18 33 -2 28 -22 -4 -10 23 28
65 25 28 49 44 73 48 23 4 35 12 32 19 -3 7 4 21 16 31 11 10 20 24 20 32 0
24 -36 14 -93 -27 -30 -22 -65 -40 -77 -40 -11 0 -35 -8 -53 -17 -18 -9 -37
-17 -43 -17 -6 -1 -18 -8 -27 -18 -9 -9 -21 -18 -26 -20 -4 -1 -21 -27 -35
-56 -15 -30 -46 -74 -68 -98 -22 -24 -36 -44 -31 -44 5 0 20 11 33 25 17 19
27 22 41 15 28 -16 35 -13 89 35 48 42 91 61 74 33 -14 -24 -49 -58 -60 -58
-13 0 -114 -105 -114 -118 0 -5 -23 -31 -51 -58 -104 -100 -236 -268 -259
-330 -11 -28 -10 -28 54 18 79 57 68 25 -24 -69 -33 -35 -69 -82 -79 -105 -11
-24 -40 -63 -65 -87 -25 -24 -46 -51 -46 -61 0 -10 -12 -26 -28 -36 -15 -10
-51 -40 -81 -68 -45 -43 -60 -38 -18 6 40 42 120 145 134 172 8 17 27 43 41
58 27 29 23 50 -6 32 -9 -6 -33 -35 -53 -64 -24 -35 -50 -60 -77 -73 -55 -25
-92 -61 -92 -89 0 -13 -10 -39 -22 -58 -54 -89 -56 -145 -1 -72 30 41 62 48
42 9 -9 -16 -8 -23 5 -32 9 -7 21 -27 27 -44 11 -31 9 -34 -32 -74 -25 -23
-62 -64 -85 -91 -26 -31 -48 -49 -64 -50 -33 -2 -104 -134 -90 -170 8 -22 2
-32 -52 -88 -34 -34 -59 -55 -55 -45 9 23 -6 22 -27 -2 -10 -11 -24 -17 -31
-15 -24 10 -25 -25 -1 -51 20 -21 22 -31 16 -60 -7 -33 -35 -85 -45 -85 -2 0
-2 8 1 18 5 15 4 15 -8 1 -12 -15 -19 -19 -35 -19 -5 0 0 -5 10 -11 9 -6 15
-14 12 -19 -3 -4 1 -10 9 -13 17 -7 29 -77 15 -94 -6 -7 -13 -28 -14 -47 -3
-29 -58 -147 -85 -181 -4 -5 -8 -30 -8 -55 -1 -25 -13 -80 -27 -123 -15 -43
-25 -92 -24 -110 2 -18 -3 -43 -11 -57 -17 -31 -63 -208 -61 -235 3 -52 4
-137 1 -200 -3 -89 -3 -91 15 -109 20 -20 4 -69 -20 -59 -14 5 -16 0 -12 -23
3 -16 6 -33 8 -39 1 -5 -8 -32 -20 -60 -13 -27 -25 -65 -28 -84 -6 -31 -4 -34
16 -28 21 5 21 2 20 -55 -1 -38 -7 -62 -15 -65 -25 -9 -27 -61 -4 -97 24 -39
29 -129 11 -175 -10 -23 -8 -38 12 -95 22 -59 23 -68 10 -82 -12 -12 -13 -17
-2 -30 19 -24 21 -52 4 -77 -18 -28 -31 -292 -15 -302 9 -6 14 7 11 31 -1 6
11 21 26 35 16 13 25 20 21 15 -4 -4 -3 -19 2 -32 7 -18 6 -24 -4 -24 -21 0
-35 -43 -37 -115 -1 -36 -6 -68 -11 -71 -4 -3 -4 -14 2 -24 5 -10 10 -44 10
-74 0 -45 3 -56 16 -56 9 0 18 9 21 20 l6 21 19 -21 c28 -30 48 -95 48 -155 0
-44 6 -62 39 -111 21 -33 51 -95 66 -139 15 -44 35 -98 45 -120 42 -95 80
-196 80 -211 0 -37 -25 -3 -45 62 -34 109 -56 139 -68 95 -4 -18 12 -59 48
-120 10 -18 11 -30 4 -44 -10 -18 -11 -18 -30 -1 -25 23 -35 11 -20 -23 7 -16
15 -41 18 -57 6 -40 30 -74 56 -82 12 -3 39 -19 60 -36 l38 -29 11 31 c12 37
14 36 63 -55 20 -38 71 -122 113 -185 42 -63 75 -120 74 -127 -3 -11 43 -93
52 -93 2 0 9 13 14 29 9 26 6 34 -30 77 -88 106 -274 414 -250 414 18 0 50
-32 63 -62 7 -18 23 -48 35 -66 13 -18 25 -45 29 -61 3 -16 19 -40 36 -55 16
-14 29 -31 29 -36 0 -13 116 -186 148 -221 13 -15 19 -29 14 -33 -14 -8 -4
-42 29 -97 14 -25 29 -67 32 -93 4 -27 13 -59 22 -72 11 -17 12 -24 3 -24 -6
0 -2 -10 10 -23 12 -13 20 -26 18 -28 -3 -2 24 -24 60 -48 35 -24 78 -61 95
-83 36 -45 52 -44 18 1 -18 24 -20 34 -11 43 19 19 14 38 -25 95 -20 29 -33
56 -30 60 8 8 57 -36 57 -51 0 -6 14 -26 30 -45 17 -18 30 -38 30 -42 0 -5 17
-19 38 -33 20 -13 51 -43 67 -67 49 -71 215 -237 282 -282 35 -23 65 -48 68
-57 3 -8 24 -24 47 -36 33 -15 42 -25 40 -41 -3 -22 71 -103 93 -103 6 0 19
-16 28 -35 15 -31 15 -35 1 -35 -8 0 -26 7 -39 16 -23 15 -25 15 -25 0 0 -16
48 -46 74 -46 8 0 24 -15 36 -34 13 -22 32 -37 50 -41 15 -3 48 -22 73 -41 42
-33 87 -51 87 -35 0 4 -16 22 -35 41 -23 23 -32 37 -25 44 7 7 14 6 22 -2 16
-16 38 -15 38 2 0 8 12 17 26 20 30 8 104 -41 167 -108 43 -47 73 -96 57 -96
-21 0 -9 -17 38 -51 80 -60 124 -78 148 -58 9 7 16 2 27 -20 11 -22 12 -31 3
-34 -6 -2 10 -17 37 -33 44 -27 65 -53 32 -40 -21 8 -19 -8 4 -28 10 -10 17
-25 14 -35 -7 -27 24 -34 47 -11 25 25 43 25 97 -1 40 -19 57 -39 32 -39 -5 0
-7 -5 -4 -10 4 -6 11 -8 16 -4 5 3 16 0 24 -6 12 -10 18 -10 31 1 22 18 75 20
94 4 9 -8 32 -16 53 -18 21 -2 48 -13 60 -24 12 -11 40 -32 62 -47 22 -14 33
-26 25 -26 -19 -1 30 -28 61 -34 76 -14 130 -29 177 -47 28 -12 67 -22 85 -23
17 -1 43 -9 57 -18 14 -9 61 -28 105 -43 44 -14 89 -32 102 -40 14 -9 24 -11
28 -5 4 6 9 9 13 6 4 -2 39 -7 77 -10 39 -4 97 -12 131 -19 60 -13 87 -8 105
17 4 5 23 -1 42 -13 19 -11 45 -21 58 -22 l24 -1 -25 -8 c-14 -4 -23 -9 -20
-10 16 -8 130 -6 130 1 0 15 40 10 46 -5 6 -15 53 -26 138 -31 28 -2 62 -8 76
-13 14 -5 57 -8 95 -7 71 1 138 -12 129 -26 -2 -4 10 -6 28 -4 79 10 115 18
150 35 36 17 39 17 75 -1 38 -20 103 -24 138 -9 18 7 19 8 3 15 -10 4 -18 11
-18 16 0 16 29 10 50 -11 31 -31 123 -30 264 1 50 11 119 22 154 24 70 5 113
22 91 36 -24 14 -4 19 33 7 32 -10 35 -13 28 -34 -6 -15 -5 -24 3 -28 7 -2
-17 -5 -53 -6 -36 -1 -72 -3 -80 -5 -8 -2 -26 -5 -40 -8 -14 -3 -36 -9 -50
-15 l-24 -9 21 -14 c17 -10 19 -17 12 -31 -7 -14 -6 -18 5 -18 8 0 16 10 18
23 3 19 10 22 53 25 28 2 58 10 68 20 24 21 37 24 137 27 50 1 95 7 110 16 59
33 109 51 204 75 56 14 164 44 241 66 77 22 151 42 165 43 14 1 52 16 85 33
33 18 84 36 112 42 29 5 63 16 75 24 13 7 46 21 75 30 28 10 88 39 132 66 91
55 242 130 263 130 32 0 147 87 148 113 0 4 -14 10 -30 14 l-31 6 28 17 c15 9
73 62 128 116 138 138 182 171 261 198 48 16 69 28 69 39 0 9 32 41 70 71 127
100 316 280 364 348 18 25 46 52 62 58 28 12 61 58 147 205 22 39 61 93 87
120 25 28 57 69 71 92 14 23 36 48 49 57 13 9 45 51 71 95 27 44 56 82 66 84
20 6 56 60 64 97 3 14 19 54 36 89 31 66 45 121 31 121 -11 0 -73 -65 -101
-106 -12 -17 -51 -89 -88 -160 -79 -153 -153 -278 -191 -320 -16 -17 -50 -57
-78 -90 -27 -32 -52 -61 -55 -64 -3 -3 -23 -25 -44 -50 -219 -252 -457 -487
-635 -625 -35 -28 -76 -62 -92 -76 -39 -37 -206 -149 -221 -149 -7 0 1 8 17
19 33 20 83 71 71 71 -5 0 -24 -14 -43 -31 -19 -16 -38 -27 -42 -24 -6 6 0 12
49 45 13 8 72 54 132 102 60 49 115 89 121 90 7 0 17 2 22 2 6 1 25 17 44 36
18 19 35 33 37 30 2 -3 13 9 23 26 22 36 71 73 88 67 6 -2 17 6 24 19 6 13 55
66 108 118 136 133 194 217 167 239 -9 8 -20 3 -41 -19 -31 -33 -45 -38 -45
-17 0 8 11 19 25 25 18 8 25 20 26 39 1 45 6 61 28 92 31 44 71 72 92 66 11
-4 22 1 28 12 9 15 10 16 11 2 0 -9 -8 -27 -19 -40 -10 -13 -16 -30 -13 -37 2
-8 -11 -29 -29 -48 -18 -18 -30 -36 -27 -40 4 -3 30 18 58 48 63 65 151 184
143 192 -4 3 -14 -5 -23 -19 l-17 -26 1 42 c1 53 -17 61 -44 17 -30 -50 -24
-12 7 41 33 57 130 183 149 194 8 5 12 12 9 17 -3 5 6 28 20 51 19 30 24 44
16 52 -8 8 -11 8 -11 0 0 -6 -9 -9 -20 -6 -36 9 -67 -4 -65 -29 1 -12 -14 -49
-33 -83 -19 -33 -34 -71 -34 -84 -1 -26 -10 -38 -43 -57 -18 -9 -42 -42 -100
-135 -26 -42 -53 -59 -64 -41 -6 10 -10 6 -14 -15 -9 -42 -21 -55 -53 -58 -44
-3 -74 -15 -74 -28 0 -7 -6 -24 -14 -39 -15 -29 -12 -40 10 -31 8 3 14 1 14
-4 0 -11 -122 -143 -132 -143 -5 0 -8 8 -8 19 0 10 -7 24 -15 31 -13 11 -20 9
-38 -9 -13 -11 -31 -21 -40 -21 -9 0 -23 -13 -31 -29 -9 -16 -45 -56 -82 -90
-71 -65 -81 -96 -13 -42 40 32 69 35 69 7 0 -8 -18 -36 -40 -61 -46 -53 -49
-65 -17 -58 19 4 17 0 -13 -26 -19 -17 -40 -31 -47 -31 -11 0 -33 -29 -33 -44
0 -14 26 -3 69 28 26 19 59 38 75 42 26 6 27 5 17 -14 -6 -12 -44 -47 -84 -79
-39 -31 -74 -59 -77 -62 -40 -44 -200 -165 -272 -205 -54 -30 -71 -32 -88 -11
-9 11 -9 15 -1 15 7 0 9 5 6 11 -5 7 -16 2 -31 -12 -21 -19 -34 -23 -82 -21
-40 2 -68 -3 -95 -17 -20 -10 -40 -15 -43 -10 -3 5 -14 9 -25 9 -12 0 -19 5
-17 12 4 12 67 62 114 90 12 7 41 28 65 46 24 19 50 37 58 42 8 4 11 12 7 18
-4 6 -19 3 -43 -9 -21 -10 -46 -19 -56 -19 -25 0 -59 -19 -52 -29 2 -5 -2 -14
-10 -21 -8 -7 -15 -10 -15 -6 0 3 -22 -5 -50 -19 -27 -14 -52 -25 -55 -25 -14
0 -3 37 15 50 11 8 20 20 20 27 0 7 9 17 19 23 27 14 31 13 24 -7 -6 -16 -5
-16 10 -4 10 8 17 28 17 46 0 29 6 37 48 60 26 15 56 39 68 53 11 14 26 23 34
20 8 -2 -14 -24 -52 -52 -50 -36 -64 -53 -61 -67 3 -10 7 -19 9 -19 2 0 25 20
51 45 58 56 103 61 70 8 -16 -26 5 -12 46 32 26 26 40 48 34 54 -5 5 6 20 27
36 33 25 52 65 24 49 -26 -14 109 120 169 167 48 38 68 49 84 44 17 -6 20 -4
16 12 -4 13 8 29 41 57 48 40 68 35 35 -11 -10 -14 -25 -35 -33 -47 -25 -37
-181 -175 -242 -214 -31 -20 -57 -40 -57 -44 -3 -32 106 42 220 150 33 31 72
63 87 72 15 9 53 42 84 72 31 31 70 66 85 78 15 12 50 53 78 92 27 39 58 72
68 74 35 5 45 13 40 32 -7 27 63 102 95 102 24 0 24 0 6 -28 -9 -15 -26 -35
-37 -45 -11 -9 -18 -20 -15 -23 3 -2 21 10 39 29 73 73 93 102 96 137 l2 35
-34 -40 c-19 -22 -34 -43 -35 -47 0 -11 -30 -10 -30 0 0 5 18 33 40 62 22 30
59 82 81 117 23 34 45 60 51 57 5 -3 4 -12 -3 -20 -6 -8 -10 -17 -7 -19 6 -6
68 70 68 84 0 6 -7 8 -15 5 -9 -4 -15 0 -15 9 0 17 42 47 65 47 8 0 21 11 27
25 10 23 28 34 28 18 0 -5 -32 -55 -71 -112 -40 -59 -66 -108 -61 -113 11 -11
24 5 105 124 36 53 67 92 69 86 2 -5 13 7 23 28 11 22 22 41 25 44 12 12 30
62 24 71 -3 5 4 21 15 35 12 15 21 31 21 36 0 12 42 71 57 81 7 4 15 24 19 45
6 34 27 85 76 190 11 23 26 42 34 42 7 0 17 12 20 28 4 15 20 56 37 92 41 91
57 138 57 171 0 24 24 119 56 223 4 11 2 16 -4 12 -8 -5 -35 -91 -37 -118 0
-3 -3 -10 -7 -14 -5 -4 -8 -16 -8 -26 0 -10 -5 -18 -11 -18 -5 0 -15 -14 -20
-30 -6 -17 -15 -30 -19 -30 -13 0 -2 47 29 125 15 38 38 103 50 143 12 40 31
82 41 92 21 21 27 35 10 25 -10 -6 -16 19 -9 40 4 17 6 79 2 88 -2 4 -11 1
-19 -8 -12 -12 -12 -18 -2 -34 14 -23 3 -40 -14 -23 -18 18 -13 73 11 114 12
20 23 44 25 54 2 11 9 53 17 94 l13 75 8 -42 c7 -32 5 -59 -8 -105 -26 -100
-28 -112 -16 -104 6 4 17 25 23 47 19 62 29 26 25 -89 -3 -87 -1 -99 11 -86
17 16 33 18 33 4 0 -5 4 -10 9 -10 6 0 9 12 8 27 -1 16 3 28 11 29 23 3 24 4
15 17 -15 19 -6 63 18 91 12 14 27 26 32 26 10 0 4 -121 -9 -192 -4 -23 -3
-38 3 -38 6 0 13 24 16 53 9 74 17 110 28 123 7 8 6 14 -1 19 -5 3 -10 18 -10
33 0 18 3 23 11 15 13 -13 16 -90 6 -158 -4 -27 -9 -87 -11 -131 -2 -45 -10
-92 -17 -105 l-13 -24 -6 30 c-5 28 -6 28 -12 8 -6 -22 -38 -33 -38 -14 0 5
-9 11 -20 14 -23 6 -25 27 -6 78 8 24 10 43 4 53 -5 9 -6 21 -3 26 3 6 1 10
-4 10 -6 0 -11 -6 -11 -14 0 -8 -6 -17 -12 -19 -10 -4 -10 -6 -1 -6 7 -1 10
-8 6 -17 -5 -13 -7 -13 -14 -2 -6 9 -9 7 -9 -9 0 -14 -6 -23 -16 -23 -13 0
-15 -6 -9 -27 3 -15 7 -32 8 -38 1 -5 6 -13 11 -16 10 -8 -1 -44 -20 -64 -8
-8 -17 -25 -19 -37 -3 -13 -13 -29 -22 -36 -10 -7 -19 -21 -20 -30 -1 -9 -4
-45 -8 -80 -3 -35 -13 -74 -21 -88 -15 -22 -15 -24 -1 -24 23 0 40 37 43 90 3
61 6 73 24 87 23 19 32 15 25 -9 -5 -18 -4 -19 4 -8 15 22 23 7 12 -23 -13
-33 -1 -44 16 -15 24 44 13 -7 -17 -80 -17 -39 -33 -95 -36 -124 -3 -29 -12
-68 -21 -87 -10 -19 -16 -45 -15 -58 1 -13 -2 -23 -7 -23 -5 0 -16 -18 -24
-39 -15 -37 -33 -58 -42 -49 -6 5 46 153 69 197 12 23 15 36 7 44 -7 7 -12 5
-17 -9 -4 -10 -10 -21 -14 -24 -4 -3 -23 -52 -44 -110 -21 -58 -46 -118 -55
-135 -27 -48 -32 -65 -18 -65 8 0 23 18 36 40 12 22 25 40 28 40 2 0 2 -19 -2
-42 -9 -56 -52 -145 -73 -151 -9 -3 -25 -8 -34 -12 -25 -10 -24 21 2 60 22 33
26 65 10 65 -14 0 -60 -49 -60 -64 0 -6 -7 -2 -15 8 -17 23 -20 21 -29 -16 -5
-21 -3 -28 9 -28 11 0 14 -6 9 -25 -4 -17 -1 -32 10 -43 14 -17 13 -23 -19
-87 -19 -38 -33 -71 -30 -73 5 -5 -35 -83 -64 -127 -12 -16 -21 -26 -21 -21 0
25 -21 -14 -29 -54 -5 -25 -12 -54 -16 -65 l-7 -20 13 20 c7 11 36 49 64 85
28 36 67 90 87 120 100 156 141 227 142 246 1 12 7 28 13 35 6 8 24 41 40 74
17 33 44 85 61 115 17 30 33 67 35 81 3 15 10 35 15 45 6 11 40 82 75 159 72
155 112 274 120 350 3 28 26 109 51 180 25 72 48 155 51 185 4 30 15 73 25 95
9 22 25 77 35 123 10 46 22 85 27 88 7 5 9 0 11 -38 2 -32 -15 -99 -26 -104
-8 -3 -12 -22 -12 -51 1 -26 -5 -72 -12 -103 -8 -30 -16 -68 -19 -84 -3 -16
-10 -40 -15 -53 -5 -13 -9 -43 -9 -66 0 -52 -50 -197 -77 -226 -11 -12 -24
-41 -27 -64 -4 -22 -11 -46 -15 -52 -4 -5 -16 -35 -25 -65 -10 -30 -22 -68
-28 -85 -6 -16 -16 -52 -24 -80 -8 -27 -29 -72 -48 -100 -34 -52 -46 -80 -50
-120 -2 -12 -12 -36 -23 -51 -12 -16 -27 -49 -34 -74 -7 -25 -16 -50 -21 -57
-20 -25 15 -24 43 3 28 27 44 61 54 120 2 17 24 60 48 96 40 59 87 174 148
361 17 53 28 71 50 83 21 10 28 21 26 36 -2 12 0 42 5 67 5 25 10 69 12 96 2
28 12 65 24 85 12 19 23 51 26 70 7 54 10 63 29 91 11 17 18 53 21 110 2 46
16 139 30 206 14 67 26 139 26 160 0 21 7 46 15 57 10 13 11 24 5 37 -18 33
-12 87 11 100 20 10 21 17 17 104 -2 52 0 93 4 92 12 -3 19 311 7 318 -5 4 -9
58 -8 122 0 63 -2 117 -4 119 -3 3 -16 2 -31 -2 -25 -6 -26 -9 -20 -53 15
-107 6 -303 -15 -324 -14 -14 -24 69 -23 181 1 57 -3 124 -9 150 -6 26 -13 61
-14 77 -14 118 -14 145 -4 145 7 0 8 11 4 32 -4 18 -9 80 -11 138 -2 58 -6
116 -9 130 -3 14 -8 39 -11 57 -3 17 -15 62 -26 100 -12 37 -22 97 -23 133 -1
38 -13 99 -28 147 -14 44 -28 93 -30 108 -2 14 -15 39 -30 55 -15 15 -29 41
-30 57 -2 15 -12 46 -21 68 -10 22 -26 80 -37 129 -11 49 -22 93 -24 97 -3 4
2 9 10 13 16 6 21 36 6 36 -5 0 -14 15 -21 33 -7 17 -16 41 -20 52 -5 11 -11
29 -15 40 -5 16 -8 17 -15 5 -7 -12 -10 -9 -10 12 0 15 -4 30 -10 33 -14 8
-13 45 1 45 7 0 9 10 7 25 -4 16 0 29 9 34 12 6 9 13 -16 31 -39 27 -49 20
-33 -24 12 -32 8 -66 -7 -66 -7 0 -113 208 -125 243 -9 28 32 21 46 -8 6 -14
15 -25 20 -25 15 0 0 81 -19 102 -10 11 -17 29 -15 39 2 13 -6 23 -25 31 -36
16 -41 24 -35 54 3 17 -5 34 -27 59 -17 20 -38 51 -45 70 -11 24 -20 33 -30
29 -11 -4 -20 3 -28 23 -7 15 -26 41 -42 58 -22 22 -26 24 -18 8 8 -14 9 -24
2 -28 -22 -13 -32 8 -27 55 6 52 -11 90 -41 90 -27 0 -67 25 -64 40 2 7 -6 19
-18 27 -11 8 -24 23 -30 33 -9 17 -8 19 7 13 10 -4 23 -14 30 -22 8 -10 12
-11 13 -4 0 6 -4 14 -9 17 -5 3 -14 25 -20 48 -6 24 -15 50 -21 58 -9 13 -12
13 -24 -2 -18 -24 -22 -23 -20 10 1 15 -3 35 -8 44 -6 14 -5 16 7 12 8 -4 15
-10 15 -16 0 -5 5 -6 12 -2 7 5 2 15 -17 31 -24 21 -26 27 -16 49 16 37 16 38
-44 95 -38 36 -52 56 -45 63 11 11 13 55 4 79 -3 9 -13 13 -25 10 -20 -6 -109
36 -109 51 0 4 7 6 15 2 17 -6 21 9 5 19 -6 4 -8 15 -5 26 4 12 -2 29 -15 46
-14 19 -17 29 -9 34 17 10 0 32 -21 26 -9 -2 -25 0 -34 5 -25 14 -20 5 29 -46
42 -43 52 -75 19 -62 -7 3 -21 -5 -31 -18 l-17 -22 -23 25 c-12 14 -23 21 -23
15 0 -6 6 -17 14 -23 8 -7 12 -20 9 -30 -2 -9 3 -23 11 -30 17 -15 22 -46 6
-36 -18 11 -10 -25 9 -42 54 -49 66 -54 56 -22 -13 40 33 3 115 -95 l25 -30
-40 31 c-54 41 -95 61 -190 93 -79 27 -80 28 -111 85 -17 32 -52 78 -77 102
-35 33 -43 45 -32 50 10 3 13 12 10 23 -3 10 -1 21 5 25 20 12 -18 43 -50 41
-16 -1 -27 1 -25 5 6 8 -41 29 -66 29 -11 0 -29 9 -41 20 -14 12 -17 20 -9 20
8 0 -6 21 -31 48 -24 26 -52 61 -63 79 -10 17 -36 39 -58 49 -48 22 -107 75
-90 81 7 3 22 -2 33 -10 12 -8 30 -13 40 -10 12 3 20 -2 25 -16 4 -13 31 -34
66 -52 33 -16 77 -45 98 -64 40 -36 51 -42 51 -25 0 17 -68 76 -121 105 -28
15 -73 49 -98 76 -27 28 -56 49 -68 49 -12 0 -30 3 -40 6 -14 4 -13 1 6 -15
17 -16 19 -21 8 -21 -9 0 -19 4 -22 10 -3 5 -20 9 -38 8 -18 0 -43 2 -57 7
-45 13 -110 59 -110 78 0 15 5 14 41 -9 24 -15 39 -20 37 -12 -2 7 -25 24 -51
38 -26 14 -47 29 -47 33 0 5 6 5 13 0 6 -4 19 -8 27 -9 8 -1 37 -5 64 -8 49
-6 49 -6 31 14 -14 15 -15 23 -6 33 9 11 8 17 -5 28 -13 10 -17 10 -24 0 -16
-26 -120 23 -120 56 0 9 9 14 23 13 12 -1 35 -2 52 -1 22 1 26 4 17 13 -6 6
-18 13 -24 14 -7 1 -51 24 -98 51 -101 59 -133 72 -183 77 -48 5 -56 -10 -18
-32 17 -9 31 -20 31 -24 0 -10 -90 22 -130 47 -19 11 -66 34 -105 50 -96 40
-135 64 -135 83 0 11 -3 13 -8 6 -4 -6 -17 -14 -29 -18 -14 -5 -23 -17 -25
-34 -2 -18 -8 -26 -18 -23 -58 15 -65 15 -52 -2 11 -13 10 -15 -10 -10 -54 12
-187 58 -230 79 -38 19 -52 22 -76 13 -28 -10 -61 -8 -92 4 -8 3 -66 22 -127
41 -62 20 -131 43 -153 52 l-41 17 -27 -32 c-25 -30 -31 -32 -77 -29 -40 2
-50 6 -49 20 1 14 -3 17 -25 11 -47 -12 -128 -6 -152 11 -13 9 -36 16 -51 16
-15 0 -30 5 -33 10 -3 6 -15 10 -26 10 -19 0 -24 -14 -20 -57 2 -20 -3 -23
-39 -23 -41 0 -49 7 -28 28 6 6 10 13 7 15 -2 1 -21 17 -41 34 l-37 31 40 16
c22 9 46 16 54 16 8 0 12 6 10 13 -4 8 9 12 44 13 45 2 48 0 44 -20 -3 -12 -1
-17 4 -10 10 14 151 10 166 -5 6 -6 29 -11 51 -12 23 0 50 -4 61 -9 13 -5 26
-3 36 7 14 12 19 12 31 0 8 -8 44 -17 83 -20 39 -3 124 -19 190 -37 161 -42
209 -51 282 -51 35 0 65 -5 69 -10 3 -5 17 -3 32 5 38 19 149 12 216 -14 17
-6 26 -6 26 0 0 6 -6 10 -14 10 -23 0 -29 31 -6 37 11 3 20 9 20 14 0 12 -17
11 -40 -1 -23 -12 -37 15 -13 28 23 13 1 23 -33 14 -16 -5 -34 -8 -40 -8 -15
1 -68 65 -60 73 10 10 76 4 125 -11 62 -20 118 -30 109 -21 -5 5 -47 18 -95
31 -112 29 -264 30 -285 1 -12 -16 -17 -16 -64 -2 -28 8 -62 23 -75 33 -21 17
-43 19 -171 19 -139 0 -172 -5 -130 -22 16 -6 16 -7 -1 -16 -19 -11 -67 -6
-112 11 -16 6 -56 13 -89 15 -34 2 -90 7 -126 10 -36 2 -119 7 -185 10 -66 4
-132 7 -146 9 -14 2 -57 -1 -95 -6 -118 -15 -144 -17 -150 -7 -3 5 -10 7 -15
3 -18 -11 -92 -13 -110 -3 -10 5 -20 5 -23 0 -3 -4 -31 -11 -63 -14 -32 -4
-68 -9 -81 -11 -45 -10 -107 -8 -133 2 -15 6 -30 8 -33 5 -3 -4 -16 3 -29 14
-24 22 -64 35 -72 23 -2 -4 13 -15 35 -25 22 -10 40 -23 40 -30 0 -26 -87 -49
-127 -34 -28 10 -30 29 -4 29 23 0 36 16 20 25 -6 4 -20 -1 -32 -12 -29 -24
-85 -63 -92 -63 -3 0 -5 11 -5 24 0 19 -6 25 -32 29 -40 5 -58 -1 -58 -20 0
-8 -7 -13 -17 -11 -10 2 -18 10 -18 17 0 16 -50 26 -59 12 -4 -5 -24 -4 -51 5
-53 16 -42 14 -110 14 -42 0 -53 3 -49 14 3 8 -4 21 -16 29 -23 16 -20 37 6
37 8 0 14 5 14 10 0 21 -37 8 -67 -25z m-953 -205 c0 -5 -5 -10 -11 -10 -5 0
-7 5 -4 10 3 6 8 10 11 10 2 0 4 -4 4 -10z m670 -74 c0 -2 -7 -7 -16 -10 -8
-3 -12 -2 -9 4 6 10 25 14 25 6z m2285 -54 c-3 -3 -11 0 -18 7 -9 10 -8 11 6
5 10 -3 15 -9 12 -12z m3026 -2045 c5 -17 6 -27 2 -23 -3 3 -12 1 -18 -4 -9
-7 -17 -3 -29 14 -9 15 -12 27 -6 31 6 4 6 16 -1 32 -5 15 -7 34 -4 42 5 12
12 6 27 -24 11 -21 24 -52 29 -68z m180 -864 c13 -16 12 -17 -3 -4 -10 7 -18
15 -18 17 0 8 8 3 21 -13z m234 -792 c3 -5 2 -12 -3 -15 -5 -3 -9 1 -9 9 0 17
3 19 12 6z m92 -413 c-3 -8 -6 -5 -6 6 -1 11 2 17 5 13 3 -3 4 -12 1 -19z
m-190 -80 c-3 -7 -5 -2 -5 12 0 14 2 19 5 13 2 -7 2 -19 0 -25z m61 -203 c-3
-3 -9 2 -12 12 -6 14 -5 15 5 6 7 -7 10 -15 7 -18z m159 -37 c-3 -8 -6 -5 -6
6 -1 11 2 17 5 13 3 -3 4 -12 1 -19z m-9342 -1010 c32 -98 33 -103 35 -148 1
-40 37 -92 49 -72 4 7 7 -25 7 -70 0 -63 7 -101 26 -158 14 -41 20 -66 12 -55
-8 11 -18 31 -21 45 -3 14 -23 61 -44 106 -21 46 -40 103 -43 131 -3 27 -14
74 -25 104 -16 44 -36 199 -25 199 1 0 15 -37 29 -82z"/>
<path d="M6790 9474 c0 -8 32 -33 43 -34 5 0 5 4 2 10 -8 13 -45 33 -45 24z"/>
</g>
</svg>
