<svg id="Layer_1" data-name="Layer 1" xmlns="http://www.w3.org/2000/svg" viewBox="0 0 843.48 200.94"><defs><style>.cls-1{fill:#19d8d6;}</style></defs><title>ocm-logo-horizontal-5</title><path class="cls-1" d="M850.87,828.48a2.46,2.46,0,0,0-.77-.51,5.27,5.27,0,0,1-.94-.51,13.78,13.78,0,0,1-4.36-2.74,20.3,20.3,0,0,1-2.82-4.28,24.2,24.2,0,0,1-2.31-8.12,82.12,82.12,0,0,1-.43-8.47v-5.39c0-1.88.09-3.79.26-5.73a44.67,44.67,0,0,1,.85-5.65,16,16,0,0,1,2-5,9,9,0,0,0-4.79-1.37,17.69,17.69,0,0,0-9.49,2.83,48.89,48.89,0,0,0-8,6.09,87.46,87.46,0,0,0-11.38,13.62A93.5,93.5,0,0,0,800.15,819a92.11,92.11,0,0,0-5.39,17,83.66,83.66,0,0,0-1.88,17.57q0,3.25.34,8.22a41.46,41.46,0,0,0,1.8,9.6,24.33,24.33,0,0,0,4.1,8,8.77,8.77,0,0,0,7.27,3.34,17.86,17.86,0,0,0,7.79-2.31,46.33,46.33,0,0,0,8.72-5.82,41.7,41.7,0,0,0,7.1-7.53q2.91-4,2.91-7.44A10.27,10.27,0,0,0,831.8,855l-2.14-4.27.34-.52a9.93,9.93,0,0,1,2.06.34,30.15,30.15,0,0,1,4.73,2.23,20.37,20.37,0,0,1,4.31,3.33,17,17,0,0,1,3.12,4.37,11.56,11.56,0,0,1,1.18,5.13,14.93,14.93,0,0,1-1,5.39,27.75,27.75,0,0,1-2.65,5.13,35.42,35.42,0,0,1-3.59,4.62c-1.31,1.42-2.58,2.7-3.83,3.82A41.64,41.64,0,0,1,823,891.65a33.09,33.09,0,0,1-13.14,2.7,29.11,29.11,0,0,1-13.4-3,34.64,34.64,0,0,1-10.24-7.88,41.11,41.11,0,0,1-7.08-11.22,59.31,59.31,0,0,1-3.93-13,81.73,81.73,0,0,1-1-13,84.36,84.36,0,0,1,2.57-20.3A94.64,94.64,0,0,1,784.15,806a88.06,88.06,0,0,1,11.64-17.56,69.14,69.14,0,0,1,15.39-13.54,49.58,49.58,0,0,1,6.59-3.34,18.79,18.79,0,0,1,7.27-1.45,40.07,40.07,0,0,1,11.63,1.65,30.72,30.72,0,0,1,10.44,5.65q1.88,1.39,3.68,2.94a20.52,20.52,0,0,1,3.16,3.44c.35.57.74,1.29,1.2,2.14a4.81,4.81,0,0,1,.69,2.14,1.78,1.78,0,0,1-.18.85,75.12,75.12,0,0,0-3,12.49,86.81,86.81,0,0,0-.94,12.83,45.41,45.41,0,0,0,.26,4.8,45.07,45.07,0,0,1,.25,4.79A7.56,7.56,0,0,1,850.87,828.48Zm-65.52-13.17a1.77,1.77,0,0,0,.77-1.11,9.93,9.93,0,0,0,.09-1.45,6.89,6.89,0,0,0-.52,1.28C785.58,814.43,785.46,814.86,785.35,815.31Zm11.29-21a51.65,51.65,0,0,0-6,8.47,57,57,0,0,0-4.27,9.49,24.22,24.22,0,0,0,2.14-3.16q1.62-2.66,3.42-5.65c1.19-2,2.28-3.9,3.25-5.73s1.56-3,1.79-3.59Zm-8.38,26h.17l.34-.51a.5.5,0,0,0-.34-.17A1,1,0,0,0,788.26,820.27Zm.68-2.56.52.17.51-1.71Zm.69,14c.22-.57.43-1.09.6-1.54s.37-1,.59-1.54q1.71-5.14,3.51-9.41t3.85-8.13q2.05-3.86,4.45-7.7t5.47-8.3a1.51,1.51,0,0,0,.43-.85,3,3,0,0,1,.26-.86,65.94,65.94,0,0,0-12.49,17.71A83.11,83.11,0,0,0,789.63,831.74Zm1.19-17.28L799,799.23a7.22,7.22,0,0,0-2,2.14c-.86,1.2-1.71,2.54-2.57,4s-1.62,2.91-2.31,4.28a13.71,13.71,0,0,0-1.19,2.9,1.75,1.75,0,0,0-.09.94A1.78,1.78,0,0,1,790.82,814.46Zm3.43-2.57.34-.34Zm3.59,5V817l.17-.17Zm.68-.85c0-.12-.06-.18-.17-.18h-.17c0,.12.06.18.17.18Zm.17-1,.18.17V815Zm35.76,51.32c-.34.46-.66.92-.94,1.37s-.54.92-.77,1.37v.34a3.4,3.4,0,0,1,1-1.19A2.26,2.26,0,0,0,834.45,866.29Zm.34-.85h-.17v.34A.5.5,0,0,0,834.79,865.44Zm.75,10.78a2.61,2.61,0,0,0,2-1.12,12.19,12.19,0,0,0,1.62-2.48,17.07,17.07,0,0,0,1.12-2.82,8.87,8.87,0,0,0,.42-2.31l-4.62,8.38Zm.24-5.48,1.37-1.88c-.57.11-.92.34-1,.68S835.89,870.29,835.78,870.74Zm1.75-2.74h-.34a1,1,0,0,0,.17.69A1,1,0,0,1,837.53,868Z" transform="translate(-511.03 -761.5)"/><path class="cls-1" d="M892.45,850.21l1.36-1.37-.17,1,.52-1h-.35l.35-.51v.51l.34-.68h.17l.68-1.2.35.17a67.52,67.52,0,0,1-5.91,11.46q-3.49,5.49-6.92,10.95c-1.26,2.06-2.51,4.14-3.77,6.25s-2.56,4.13-3.93,6.07q-2.56,3.76-6.25,8.64t-6.58,8.13a3.51,3.51,0,0,1-1.63,1,7.93,7.93,0,0,1-1.8.18,9.36,9.36,0,0,1-6.15-2,7.18,7.18,0,0,1-2.4-5.9,74.71,74.71,0,0,1,1.37-14.12q1.37-7.1,3.25-13.6,1.37-5.13,2.57-10.26a65.23,65.23,0,0,0,1.54-10.44v-.68a3.27,3.27,0,0,0-.26-1.29,3.22,3.22,0,0,1-.26-1.28.83.83,0,0,1,.6-.77c.4-.17.71-.31.94-.43a20.61,20.61,0,0,1,9.67,3.94q4,3.08,4,9.23a31.87,31.87,0,0,1-1.37,9.41c-.91,3-1.83,6-2.74,9.07l-3.76,12.66c0,.12,0,.17-.09.17s-.08.06-.08.17v.17l.17.35q3.59-4.46,6.76-9.33t6.41-9.66a48.63,48.63,0,0,1,4.11-5.48c1.48-1.71,2.91-3.48,4.27-5.3a16.85,16.85,0,0,0,2.14-3.08,13.72,13.72,0,0,1,2.31-3.08l-.85,1.54,1.2-1.37q-2.06,3.42-4.37,6.76a45.29,45.29,0,0,0-4,7.1l1.71-2.05a15.21,15.21,0,0,0,1.54-2.23,44.41,44.41,0,0,0,2.48-4.62,14.74,14.74,0,0,1,3-4.27Zm-33.88,42.43h.34q1.89-7.53,4-14.88t4.2-14.89a21.5,21.5,0,0,0-2.23,5.73c-.45,2-1,4-1.54,5.91-.91,3-1.82,6-2.73,9A63.56,63.56,0,0,0,858.57,892.64Zm12-79,.85.17V815a3.27,3.27,0,0,0,1.2-.86l1.71.86-.34,1.2,2,.34v1.71l.86-.17a3.49,3.49,0,0,1,1.71,2.91,18.74,18.74,0,0,1-.94,5.9,18.46,18.46,0,0,0-.94,5.9,17.25,17.25,0,0,0,.34,3.42,17.32,17.32,0,0,1,.34,3.42,3,3,0,0,1-1.54.52,2.81,2.81,0,0,1-1.62-.52,2.13,2.13,0,0,0-1.63-.34,9.51,9.51,0,0,1-2.91-2.65,27.6,27.6,0,0,1-2.48-3.93,22.48,22.48,0,0,1-1.71-4.28,15,15,0,0,1-.6-4,17.26,17.26,0,0,1,.34-2.91,22.88,22.88,0,0,1,1-3.76,16.47,16.47,0,0,1,1.63-3.34,2.6,2.6,0,0,1,2.13-1.45Zm-5.48,73.91c.23-.23.52-.49.86-.77s.62-.55.85-.77q5.15-7.69,10.27-15.14l10.43-15.14-4.1,4.44a25.72,25.72,0,0,0-3.42,4.62q-2.24,3.6-4.54,7.1t-4.53,7.1a36.4,36.4,0,0,1-3,4.19A22.91,22.91,0,0,0,865.07,887.51ZM867.64,861h-.34v1a.61.61,0,0,0,.17-.43A1.31,1.31,0,0,1,867.64,861Zm5.47,19.33a1.35,1.35,0,0,0-.94.69,9,9,0,0,1-.6,1Zm2.23-2.91c-1.14.23-1.71.75-1.71,1.54v.35Zm4.79-6.67.68-.51c.23-.46.46-.88.69-1.28a13.73,13.73,0,0,0,.68-1.46,6.88,6.88,0,0,1-.94,1.63A15.43,15.43,0,0,0,880.13,870.74Zm4.45-5.47.51-.52a.66.66,0,0,1-.51-.17c.22-.45.42-.88.6-1.28s.36-.83.59-1.28l-2,2.9.86-.34Zm3.59-6h-.34l.51-.86v-.68a12.71,12.71,0,0,0-1.54,2.57l.68-.35.35-.68a1,1,0,0,1,.17.68A1,1,0,0,0,888.17,859.28Zm-.69,1.2L888,860h-.34A.7.7,0,0,0,887.48,860.48Zm1-1.89h-.17v.35A.52.52,0,0,0,888.51,858.59Zm1.2-2.22a2.62,2.62,0,0,1,.17-.94,2.58,2.58,0,0,0,.17-.94l-1.54,2.91.69-.34v.51l.34-.51h-.34Zm0,0v.51l.34-.51a1,1,0,0,1,.17-.68h-.17v.68Zm2.74-6.16a2,2,0,0,1-.69,1.37l.69-.17.17-.68Zm.51,1-.34.17-.17.51Zm-.34-2a10.37,10.37,0,0,0,.51-1.2c.11-.34.23-.74.34-1.2l.34.17A6.18,6.18,0,0,1,892.62,849.19Zm1.71-1V848h-.17v.34Zm.17-.69V848h-.17Zm.17.52h-.17v.17Z" transform="translate(-511.03 -761.5)"/><path class="cls-1" d="M936.75,807.27a1.36,1.36,0,0,0,.77,1.37,7.54,7.54,0,0,0,1.63.51,10.84,10.84,0,0,1-4.79,3.08,48,48,0,0,1-7,2q-3.76.76-7.53,1.28t-6,.86a295.82,295.82,0,0,0-7.61,30.45q-3,15.4-5.56,31-1.38,8.21-2.23,16.59a165.2,165.2,0,0,0-.85,16.77,52.06,52.06,0,0,0,.43,6.75,50.79,50.79,0,0,0,1.28,6.59,4.58,4.58,0,0,1,.17,1.37,1.62,1.62,0,0,1-1.29,1.62,6.94,6.94,0,0,1-2.15.43c-.35,0-.63-.28-.86-.85l-1,1.54a13.85,13.85,0,0,0-3.2-1.29,13.63,13.63,0,0,1-3.2-1.28,8.21,8.21,0,0,1-3.72-3.76,21.85,21.85,0,0,1-1.9-5.65,37.84,37.84,0,0,1-.69-6.16c-.06-2-.09-3.82-.09-5.3A237.91,237.91,0,0,1,882.89,878q1.56-13.59,3.66-26.94c.35-2.06.63-4.14.87-6.25a56.39,56.39,0,0,1,1-6.24c.47-2.4,1-4.79,1.48-7.19s1-4.79,1.31-7.18a15.28,15.28,0,0,1,.43-1.71,6,6,0,0,0,.25-1.71c0-.46-.28-.72-.85-.77s-1-.09-1.2-.09c-.92,0-1.8,0-2.65.09s-1.74.08-2.65.08l.17-.17a7.87,7.87,0,0,1-2.83-1.45,11.46,11.46,0,0,1-2.31-2.31l.17-1-1.53-.86a6.76,6.76,0,0,1,.68-1.88,3,3,0,0,1,1.71-.85,35.7,35.7,0,0,1,5.73-1.2,52.4,52.4,0,0,0,5.73-1,90.06,90.06,0,0,0,5.31-7.61,59.91,59.91,0,0,0,4.27-8.3,47.3,47.3,0,0,1,3.25-6.58c1.26-2.11,2.51-4.2,3.77-6.25a10.65,10.65,0,0,1,1.11-1.54,2.29,2.29,0,0,1,1.8-.68l2,1-1.2,2.74a14.26,14.26,0,0,0,1.37-1.54c.34-.45.74-1,1.2-1.54l.68,1,1.37-.17-.85,2.39,1.36-1.19,1.89.68v1.71l1.36-.34c.57.46,1.17.91,1.8,1.37a2.18,2.18,0,0,1,.94,1.88,22.83,22.83,0,0,1-.94,3.16q-.95,2.84-2.14,6.25l-3.08,8.89a6.78,6.78,0,0,1,1.88-.08,4.07,4.07,0,0,0,1.89-.26,23.91,23.91,0,0,1,4.36-.6c1.42,0,2.93-.08,4.53-.08a7.89,7.89,0,0,1,3.85.68A12.58,12.58,0,0,1,936.75,807.27Zm-50.54,80.07H886v2.22h.18Zm.7-7.19h-.18v2.05h.18Zm.55-2.91c.22-2.28.51-4.62.85-7s.69-4.73,1.06-7l-.54-.17-1.72,14.2Zm2.08-15.57q1.88-10.77,3.59-21.38t4.44-21.21a27.57,27.57,0,0,0-1.4,4c-.58,2-1.19,4.39-1.83,7.18s-1.25,5.79-1.83,9-1.11,6.25-1.57,9.16-.85,5.47-1.14,7.69a42.21,42.21,0,0,0-.43,4.71Zm.34,32.85-.17-1.71-.17,1.71Zm-.17-4.28h.17v-.34h-.17Zm.85-6.84h-.17l-.17,3.25h.17Zm.52-4.1h-.35v2.39h.18Zm11.29-61.25a22,22,0,0,0-1.8,5.22q-1.11,4.18-2.39,10.09t-2.48,12.75Q894.5,853,893.56,859T892,869.89a63.86,63.86,0,0,0-.6,6.5l-.17.85c.91-5,1.73-10,2.48-14.88s1.56-9.81,2.48-14.71,1.91-9.95,3-14.8S901.34,823.07,902.37,818.05Zm-9.58,95.12a397.61,397.61,0,0,1,5-48.33q3.93-23.87,10.09-47.48l-1.54.18A199,199,0,0,0,901,839q-2.06,10.86-3.94,21.64-1.71,11.11-3.16,22.24a172.47,172.47,0,0,0-1.46,22.41v3.93A21.88,21.88,0,0,0,892.79,913.17Zm2.73-105.39a.61.61,0,0,0-.68.69v.34Zm.35,88.11h-.17v.51h.17Zm.68-4.62v-.85a1.35,1.35,0,0,0-.17.85Zm.51-5.64v-.52h-.17v.52Zm.69-4.62h-.17v.68h.17Zm.51-3.6h-.17v.69Zm.34-2.56a1,1,0,0,1-.17-.69h-.17a1,1,0,0,0,.17.69Zm.35-4.11h-.18v1.2H899Zm.51-2.91h-.17v.69h.17Zm.17-30.28v.52h.17v-.52Zm.34,28.23v-1.37h-.17v1.37Zm.17-30.45a1.92,1.92,0,0,1-.17.85h.17l.17-.85Zm.35,27.54v-1h-.35v1Zm0-28.91h.17v-.34Zm.51,26.17a2,2,0,0,0-.17-.85h-.17v.85Zm0-28.74v.52h.17v-.52Zm.34,25.84v-.69h-.17v.69Zm.51-2.06V854h-.17l-.17,1.19Zm.18-27.54-.35.51H902Zm0-22.75c-.12,0-.18,0-.18.17Zm.34,47.73a2.46,2.46,0,0,0-.17-1H902v1Zm-.17-26.52.17.17.34-.68Zm.51,22.92h-.17v1.37h.17Zm.17-1.19a.5.5,0,0,0,.34.17v-1.2h-.17Zm.17-24.3.34-.85-.34-.17Zm.52,21.05h-.18v1.19h.18Zm0-23.61v.34a.5.5,0,0,0,.17-.34Zm.51,22.41v-1h-.17v1Zm.51-3.08-.34.85.34.18Zm.69-2a.61.61,0,0,0-.69.68.66.66,0,0,0,.09.43.75.75,0,0,1,.08.43Zm.51-1.89c-.46.23-.69.52-.69.86a.66.66,0,0,0,.09.43.66.66,0,0,1,.09.43Zm1.71-34.55a4.46,4.46,0,0,0-1.28,2.31c-.17.85-.37,1.74-.6,2.65a4.53,4.53,0,0,0,1.28-2.31C907.07,803.59,907.27,802.71,907.5,801.8Zm-1.88,32.84a5,5,0,0,0,.17,1.54,4.68,4.68,0,0,1,.08-.77,3.72,3.72,0,0,0,.09-.77Zm.68-1v-.86a2.89,2.89,0,0,0-.34.86Zm.17-1.88a.7.7,0,0,0-.17.51l.17-.17ZM907,830a.7.7,0,0,0-.17.52Zm.34-1.54-.17.18a2.65,2.65,0,0,1-.09.68,2.68,2.68,0,0,0-.08.68l.34-1.36Zm0,0a10.49,10.49,0,0,0,.85-2.73,1.8,1.8,0,0,0-.77,1.19A14.36,14.36,0,0,0,907.33,828.48Zm.17-26.68q0-.18.09-.18s.08,0,.08-.17A.52.52,0,0,0,907.5,801.8Zm.86,23.78c.22-1.14.45-2.11.68-2.91a2.63,2.63,0,0,0-.86,1.88A2.29,2.29,0,0,0,908.36,825.58Zm-.18.17h.18v-.17Zm.52-37c0,.12,0,.17-.09.17s-.08.06-.08.18A.52.52,0,0,0,908.7,788.79Zm0-.34a1.19,1.19,0,0,0,.34-.85Zm.34-.85.34-.69A1,1,0,0,1,909,787.6Zm.51,32.5a1.72,1.72,0,0,0-.34.94,3.07,3.07,0,0,1-.17.94l.51-1.19Zm.17-1.2c.46-.11.69-.51.69-1.19V817Zm2.06-14.2q1.37-3.42,2.39-6.75c.69-2.23,1.48-4.48,2.4-6.76a4.76,4.76,0,0,1-.86,1.2,6.38,6.38,0,0,0-.85,1,17.81,17.81,0,0,0-1.12,2.4q-.76,1.88-1.62,4c-.57,1.43-1.06,2.74-1.46,3.93a10,10,0,0,0-.59,2.31h.34C911.09,806.07,911.55,805.62,911.78,804.7Zm-1-19.5a1,1,0,0,0,.34-.68A1,1,0,0,0,910.75,785.2Zm.17,7.53.51-.34h-.51Zm1-10.1a5.76,5.76,0,0,0-.52,1c-.11.28-.23.59-.34.94L912,783Z" transform="translate(-511.03 -761.5)"/><path class="cls-1" d="M962.25,828a30.27,30.27,0,0,0,2.13,2.57,31.85,31.85,0,0,1,2.14,2.56l-1.37,7.19c-.23,1.14-.45,2.25-.68,3.34s-.46,2.19-.69,3.33q-.85,4.62-1.36,9.33c-.35,3.13-.63,6.24-.86,9.32q-.51,5.64-.94,11.2T959.51,888c-.34,3.65-.75,7.27-1.2,10.86s-1,7.16-1.71,10.7q-1.2,6-3.08,12.57a102.21,102.21,0,0,1-4.7,13,83.46,83.46,0,0,1-6.59,12.15,49.27,49.27,0,0,1-8.38,9.84,25.14,25.14,0,0,1-5.31,3.76,13.29,13.29,0,0,1-6.33,1.54,14.74,14.74,0,0,1-5.39-1A29.4,29.4,0,0,1,912,959a10.18,10.18,0,0,1-4.45-5.56,24.18,24.18,0,0,1-1-7.1q0-2.91.26-5.9a26.67,26.67,0,0,1,1.11-5.73,35.14,35.14,0,0,1,1.54-4.62q1.2-3.09,2.74-6.93c1-2.57,2.19-5.16,3.51-7.79s2.62-5,3.93-7.27a27.06,27.06,0,0,1,4-5.39c1.37-1.37,2.62-2.05,3.76-2.05a8.43,8.43,0,0,1,3.34,1,11.16,11.16,0,0,1,3,1.88,16.75,16.75,0,0,0-5.73,5.82,71.92,71.92,0,0,0-3.67,7.35q-2.58,5.82-4.54,11A80.19,80.19,0,0,0,916.4,939a.36.36,0,0,1-.09.26.34.34,0,0,0-.09.26c-.23,1.13-.42,2.22-.59,3.25a18.77,18.77,0,0,0-.26,3.25,13.5,13.5,0,0,0,.85,5,40.7,40.7,0,0,1,1.54,4.71l3.77-3.08a28.43,28.43,0,0,0,3.42-3.76,41.77,41.77,0,0,0,3.16-4.79c1-1.72,1.89-3.43,2.74-5.14s1.57-3.25,2.14-4.62a132.65,132.65,0,0,0,8.38-28.31q2.57-14.46,5.14-29.17a56.91,56.91,0,0,0,1-10.78c-.8,1.37-2,3.28-3.68,5.73a88,88,0,0,1-5.47,7.27,53.31,53.31,0,0,1-6.07,6.25c-2.06,1.77-3.88,2.65-5.48,2.65a2.43,2.43,0,0,1-1.28-.26,9.61,9.61,0,0,0-1.28-.59l-1.72-.86A32.15,32.15,0,0,1,915.8,882q-2.65-2.31-2.66-8a37.79,37.79,0,0,1,1.92-11.37q1.92-6.07,3.48-11.21,1.4-4.27,2.88-8.9a29.8,29.8,0,0,0,1.48-9.06,20.52,20.52,0,0,0-.26-3.17,20.39,20.39,0,0,1-.26-3.16,9.93,9.93,0,0,1,5,2.39,16.21,16.21,0,0,1,3.46,4.36,19.62,19.62,0,0,1,1.93,5.31,27.31,27.31,0,0,1,.59,5.56,56.07,56.07,0,0,1-1.88,14.54q-1.89,7-3.59,14.2v1.88a112.46,112.46,0,0,0,14-18.22A203.59,203.59,0,0,0,952.66,837a37.79,37.79,0,0,1,2.49-4.79,27.26,27.26,0,0,1,3.16-4.28l2.05-1.88.35,2.74a.66.66,0,0,0-.52.68,1.75,1.75,0,0,1,.26-.43l.26-.25A2.79,2.79,0,0,0,962.25,828ZM909.38,938.15a.7.7,0,0,0,.17-.52,1,1,0,0,0-.17-.68Zm.34-2.57a.36.36,0,0,1,.09-.26.32.32,0,0,0,.08-.25c0-.12,0-.17-.08-.17s-.09-.12-.09-.35Zm1.71-4.45a2.63,2.63,0,0,0,.35-1,.85.85,0,0,1-.17.42,6.37,6.37,0,0,0-.35.6c-.22,0-.34.23-.34.69a.69.69,0,0,0,.34-.69Zm.35-2.73a2.29,2.29,0,0,0,.17,1A1.78,1.78,0,0,0,911.78,928.4Zm.85-.86a1.38,1.38,0,0,0,.17-.86Zm.34-1a4.25,4.25,0,0,0,.17-1.36Zm1.54-3.59a1.82,1.82,0,0,0,.17-.85,8.33,8.33,0,0,0-.34.77,2.25,2.25,0,0,1-.51.77Zm-.34,13.35a.37.37,0,0,0-.08-.26.36.36,0,0,1-.09-.26v.69Zm2.57-17.45a2.56,2.56,0,0,0-1.71.94,4.09,4.09,0,0,0-.35,2,4.15,4.15,0,0,1,1-1.45A8.13,8.13,0,0,0,916.74,918.82Zm-2.06,14a.45.45,0,0,0,.52-.51.72.72,0,0,0-.09-.34,1.18,1.18,0,0,1-.08-.51A3,3,0,0,0,914.68,932.84Zm2.23-15.91c-.12.12-.17.4-.17.86a1.13,1.13,0,0,1,.08-.51.76.76,0,0,0,.09-.35,2.68,2.68,0,0,0,.34-1.19A2.68,2.68,0,0,0,916.91,916.93Zm-.17,11.12a1,1,0,0,0,.17-.68A1,1,0,0,0,916.74,928.05Zm1.37-4.44-.35.85a5.38,5.38,0,0,1-.68,2.22l.51-.51Zm0-8.22a1,1,0,0,0-.69.17A1,1,0,0,0,918.11,915.39Zm1-2a1.05,1.05,0,0,0-1.19,1.2,1,1,0,0,0,.17.68Zm-.17,9.07-.34.17Zm2.23-12.83a2.42,2.42,0,0,0-.52.68,1.91,1.91,0,0,1-.68.69.66.66,0,0,0,.43-.09q.08-.09.42-.09Zm-.86,10.26a.32.32,0,0,0-.09-.25.4.4,0,0,1-.08-.26V920Zm1.88-12.49a.74.74,0,0,0-.17.52Zm0-.51.34-.17a.31.31,0,0,1,.35-.34,1,1,0,0,0-.69.34Zm2.57,4.11a.52.52,0,0,1-.34.17c-.12,0-.23.11-.35.34.23,0,.37-.06.43-.17s.2-.17.43-.17a1.59,1.59,0,0,1,.17-.69,1.55,1.55,0,0,0,.17-.68Zm2.74-4.62a.55.55,0,0,0-.52.34.3.3,0,0,1,.34.34v-.51C927.34,906.38,927.4,906.33,927.52,906.33Zm6.15-33.54c-.23.23-.34.41-.34.52Zm1.37,5.48a1.15,1.15,0,0,0,.86-.34.52.52,0,0,1-.34.17A1.38,1.38,0,0,0,935,878.27Zm.69,58.68a.66.66,0,0,1,.17-.51,1,1,0,0,0-.34.68Zm2.91-62.44a3.18,3.18,0,0,0,.34-1.37c-.12.23-.26.48-.43.77a6.67,6.67,0,0,1-1.28,1.28l-.17.17c-.23.23-.35.4-.35.51,0-.11.09-.22.26-.34a3.23,3.23,0,0,0,.43-.34,1,1,0,0,0,.68-.17Zm-.35-8.56a1,1,0,0,0-.17.69Zm-.17,65c.23-.46.43-.88.6-1.28s.37-.83.6-1.28a3.66,3.66,0,0,0-.68,1A6.34,6.34,0,0,0,938.12,931Zm2.74-67.4a1.8,1.8,0,0,1,.09-.6,2.13,2.13,0,0,0,.08-.6l.69-.34a1,1,0,0,0-.69.17l-.34,1.2-.69.34a4.18,4.18,0,0,0-.85,1.88,5.6,5.6,0,0,1,.68-1.28C940.18,863.81,940.52,863.56,940.86,863.56Zm-.68,62.78c.22-.91.42-1.85.59-2.82s.37-1.91.6-2.82l-1.71,5.64a1.17,1.17,0,0,0-.34.86,1,1,0,0,1,.34-.69ZM940,942.42a2.27,2.27,0,0,0,.18-1A2.27,2.27,0,0,0,940,942.42Zm.35-70.65a.71.71,0,0,1,.08-.34,1.18,1.18,0,0,0,.09-.52A1.86,1.86,0,0,0,940.35,871.77Zm.85-1.2a6.83,6.83,0,0,0,.69-.51Q941.71,870.06,941.2,870.57Zm.34,68.6c1-.57,2.08-2.13,3.17-4.7a84.74,84.74,0,0,0,3-8.38q1.37-4.55,2.31-8.73t1.29-5.56a25.76,25.76,0,0,0-1.46,3.68q-1.11,3.16-2.31,6.84t-2.31,7.19c-.74,2.33-1.28,4-1.62,4.87s-.66,1.6-.94,2.4A15.11,15.11,0,0,1,941.54,939.17Zm1.37-78.86a1.31,1.31,0,0,0,.17-.6,1,1,0,0,1,.35-.6l.51-.34a.52.52,0,0,1-.34.17,1.38,1.38,0,0,0-.52.17,2.13,2.13,0,0,1-.08.6,1.8,1.8,0,0,0-.09.6,1.13,1.13,0,0,0-.51.08,1.16,1.16,0,0,1-.51.09,2.29,2.29,0,0,0-.17,1,.73.73,0,0,1,.08-.34,1.11,1.11,0,0,0,.09-.51,1.37,1.37,0,0,1,.6-.17A.57.57,0,0,0,942.91,860.31Zm-.68,8.55a.6.6,0,0,1,.43-.17c.17,0,.31-.11.42-.34l-.85.34a2.72,2.72,0,0,0-.34,1.2.77.77,0,0,1,.17-.43A1.08,1.08,0,0,0,942.23,868.86Zm.51,48.42c-.23.22-.34.39-.34.51a.7.7,0,0,0,.17.51A2.44,2.44,0,0,0,942.74,917.28Zm.52-1.89c0,.12,0,.17-.09.17s-.09.06-.09.18v.17c0,.11.06.17.18.17Zm1.36-49.78a.4.4,0,0,1-.08.26c-.06,0-.09.2-.09.42-.45,0-.68.12-.68.35v.17c.11-.23.23-.35.34-.35a.46.46,0,0,0,.34-.17Zm.69-9.58a1.45,1.45,0,0,1,.6-.17c.17,0,.31-.11.42-.34a1,1,0,0,0-.68.17l-.34.34-.26.51a2.39,2.39,0,0,1-.43.52h.52a1.2,1.2,0,0,1,.08-.52A1.11,1.11,0,0,0,945.31,856Zm-.17,65.18-.52,1.54.52-.68Zm.34-56.8a1.1,1.1,0,0,0,.68-1,2,2,0,0,0-.42.51C945.68,864,945.59,864.18,945.48,864.41ZM947,853.29c.11-.23.2-.4.26-.51a2.19,2.19,0,0,1,.42-.52l-1,.86a1.8,1.8,0,0,1-.09.6,1.82,1.82,0,0,0-.08.6Zm.34,7.7a2.55,2.55,0,0,1,.69-.51l.17-.17.34-1.2a2.72,2.72,0,0,0-.34,1.2l-.86.17Zm.86-10.61a2.72,2.72,0,0,1-.09.69,2.63,2.63,0,0,0-.08.68,1.55,1.55,0,0,0,.17-.68,1,1,0,0,1,.34-.69v-.68Zm2-2.39a2.74,2.74,0,0,0-1,.68Zm1.2-3.59a2.58,2.58,0,0,1-.6,1.62,2.83,2.83,0,0,0-.6,1.8,3.32,3.32,0,0,1,1-1.89,3.8,3.8,0,0,1,.08-.77A3.71,3.71,0,0,0,951.47,844.4Zm-.17,67.06a11.45,11.45,0,0,1,.68-1.71c-.57,0-.86.23-.86.68a1.18,1.18,0,0,0,.09.52A1.11,1.11,0,0,1,951.3,911.46Zm.34-3.59a3.23,3.23,0,0,0,.34,1.71Z" transform="translate(-511.03 -761.5)"/><path class="cls-1" d="M1126.05,787a19.78,19.78,0,0,1-.57,5.67q-.69,2.6-1.44,5.53l-3.72,16.05q-3,12.6-6,25.54T1109,865.87q-2.35,13.18-3.7,26.41a193.75,193.75,0,0,0-.89,26.05c.12,3.3.29,6.66.53,10.08a49.28,49.28,0,0,0,1.72,10,14.57,14.57,0,0,0,1.14,3.21,15.55,15.55,0,0,1,1.14,3.22,8.63,8.63,0,0,1-1.54.22l-1.53,0a10.21,10.21,0,0,1-6.49-1.82,12.83,12.83,0,0,1-4.21-5.33,62.73,62.73,0,0,1-2.41-7.88q-1.11-4.5-1.87-9.35t-1.19-9.55q-.42-4.69-.54-8.28a70.76,70.76,0,0,1,.15-8q.29-4,.49-8c.14-2.29.29-4.63.44-7s.34-4.74.61-7a184.33,184.33,0,0,1,4-22.65q2.68-11.13,5.21-22.35l.9-3.62q.6-2.41,1.28-5t1.2-4.92a15.77,15.77,0,0,0,.49-3.19l-1.8,2.63q-6.33,9.65-12.32,19.61t-11.45,20.08q-3.71,7-6.86,14.37t-5.81,15a5.25,5.25,0,0,0-.29,1.55,5.18,5.18,0,0,0,.5,2,5.46,5.46,0,0,1,.5,2,1.37,1.37,0,0,1-.73,1.31,3.32,3.32,0,0,1-1.61.48,2.68,2.68,0,0,1-1.72-.45l-.66.88-2.07-.61c-.7-.21-1.33-.41-1.91-.62a7.91,7.91,0,0,1-4.42-4,22.52,22.52,0,0,1-2.1-6.26,40.65,40.65,0,0,1-.67-6.91c0-2.33-.06-4.36-.12-6.07q-.48-13.5-.17-26.87t1.2-26.75q-7.18,14.64-13.09,29.56t-10.66,30.5a151.27,151.27,0,0,0-4.13,19l-.29,1.55-1.87.24a6,6,0,0,1-.23-1.71,16.18,16.18,0,0,1,.16-2.83c.13-1,.3-1.92.5-2.84a102.41,102.41,0,0,1,5.59-21.08q3.93-10.23,7.68-20.47a38.06,38.06,0,0,1,1.73-4.25,34.7,34.7,0,0,0,1.73-4.43l.3-1.21a57.2,57.2,0,0,1,3-7.12,49.8,49.8,0,0,0,3-7.29q-1.75,3.48-3.17,7.13c-1,2.42-2,4.8-3,7.12q-4.28,9.9-7.86,20t-7,20.53a59.12,59.12,0,0,0-3.18,16.72,4.65,4.65,0,0,1-.06.94,8.46,8.46,0,0,1-.22,1l-.88-.65-1.64,1.94a34.27,34.27,0,0,0-3.22-1.43,11,11,0,0,1-3.06-1.78,20,20,0,0,1-3.38-3.73,29.09,29.09,0,0,1-2.82-4.86,30.28,30.28,0,0,1-1.9-5.33,22.87,22.87,0,0,1-.77-4.94,100.94,100.94,0,0,1,.59-14.74q.86-7.56,2.47-15.15t3.76-14.94q2.13-7.35,4.47-14.11,1.86-5.54,4.08-10.75t4.25-10.59a10.75,10.75,0,0,0-3,1c-1.52.68-3.31,1.57-5.39,2.67s-4.34,2.29-6.8,3.58-4.91,2.48-7.33,3.59-4.72,2.05-6.92,2.81a20.12,20.12,0,0,1-5.69,1.23,7.13,7.13,0,0,1-5.73-2.37,12.74,12.74,0,0,1-3.1-5.54c.2-.69.59-1,1.16-1.07A2.54,2.54,0,0,1,981,799a3.19,3.19,0,0,0,1.73.37,28.62,28.62,0,0,0,8.73-2.36q5.66-2.25,11.8-5.21T1015,785.7q5.63-3.11,8.82-4.76c2.24-1.21,4.39-2.46,6.46-3.73s4.22-2.46,6.47-3.57l1.44,2.18.86,0,2.35,3.68-.14.69a6.74,6.74,0,0,1,1,1.17,2.82,2.82,0,0,1,.48,1.52,18.36,18.36,0,0,1-1.39,4.24c-1,2.38-2,5-3.15,7.82s-2.32,5.59-3.48,8.25a54,54,0,0,0-2.2,5.56q-4.66,13.68-8.63,27.51a166.27,166.27,0,0,0-5.51,28.44c-.19,1.27-.34,2.58-.46,4a29.35,29.35,0,0,0-.12,3.94q6.06-17.51,12.83-34.43t15.27-33.32q1.92-3.83,4.1-7.59a34.12,34.12,0,0,1,5.16-6.77c1-.94,2-1.83,3.07-2.67s2.14-1.73,3.25-2.68l1.57.8-.13,1.2,1.16-1.07,1.9.45-2.67,6.94h.17l3-6.44.56,1.35,1.16-1.07-3.47,13.3.51.15c.62-2,1.18-4,1.68-6.05a29.13,29.13,0,0,1,2.18-6.06l2.28,1.46.08,2.22a10,10,0,0,1-.2,1.72c-.14.8-.29,1.64-.43,2.5l-.42,2.58q-.21,1.29-.36,2-.85,5-1.45,10c-.4,3.32-.77,6.65-1.11,10l-2.63,32.44a20,20,0,0,0-.22,3.52l.12,3.5a8.23,8.23,0,0,0,1.14-1.75c.43-.81.88-1.68,1.36-2.61s.94-1.86,1.36-2.79.8-1.68,1.12-2.26q2.41-4.55,5.17-9t5.51-8.84q5.36-8.4,10.63-16.55t11-16.21a58.39,58.39,0,0,1,4.09-5.54,59.94,59.94,0,0,0,4.08-5.53,21.7,21.7,0,0,0,1.78-3.06,15.63,15.63,0,0,1,2-3.07,6.68,6.68,0,0,1,1.23-1.32,2.8,2.8,0,0,1,1.61-.49,5,5,0,0,1,2.24.44,7.06,7.06,0,0,0,2.25.6l-.16.35,2.11,1.64.22,1.19.66-.54Zm-123.34,12.18a.46.46,0,0,0,.33-.18c-.11,0-.17,0-.16.09S1002.82,799.14,1002.71,799.14Zm11.44-10.5-.17-.16v.17Zm4.09,92.47,0-1.11a3.41,3.41,0,0,1,.13-1.12,1.84,1.84,0,0,0-.31,1,1.83,1.83,0,0,1-.3,1A.69.69,0,0,1,1018.24,881.11Zm.77,7.51a1.41,1.41,0,0,1,.07-.52,1.2,1.2,0,0,0,.07-.52,2.51,2.51,0,0,0-.31,1Zm2.37-98.86a10.24,10.24,0,0,0-2.53,1.11c-.78.49-1.62,1-2.51,1.46l4.71-2.22Zm-2.14,85.67a8,8,0,0,1,1.12-2.27l-.51.19Zm1,12.46-.17.18h.17Zm.11-6.51-.18-.16,0,.68Zm1.58-13.58a1.29,1.29,0,0,0-.73,1.05,13.15,13.15,0,0,1-.21,1.38Zm.89,20.51-.17.18h.17Zm.82-25.36a1.22,1.22,0,0,0-.81,1.23l0,.51Zm.07,6.67-.18-.16v.17Zm.42,12.14h-.17v.17Zm.49-15.25h-.17l.18.16Zm-2.51-77a6.48,6.48,0,0,0,2.19-.93,1,1,0,0,1-.19-.68,5.77,5.77,0,0,1-1,.89C1022.73,789.09,1022.39,789.33,1022.06,789.56Zm4.23,72.1h-.17l.17.17Zm4.71-12.15-.18-.17v.18Zm6.1-21.44c0-.11,0-.17.08-.17s.08-.06.08-.18A.48.48,0,0,0,1037.1,828.07Zm.63-1.56.56-1.22a7.65,7.65,0,0,1,.56-1c-.57.25-.87.58-.91,1S1037.82,826.05,1037.73,826.51Zm3-7.3a3.39,3.39,0,0,0,1.31-1.67,11.62,11.62,0,0,0,.44-2,17,17,0,0,1-.79,1.82Q1041.21,818.34,1040.73,819.21Zm2.39-4.87a1,1,0,0,0,.68-.37Zm9.59-9.93h-.17a1,1,0,0,0-.15.69Zm-.24-6.83-.18-.17v.17Zm7.66,67.52H1060l0,.52h.17Zm.06,1.71H1060l0,1.2h.17Zm.1,2.9h-.17l.06,1.71h.17Zm-.12-8.55q.61-11.49,1.34-22.9t1.51-22.91l-.49.7c-.44,3.79-.79,7.56-1.06,11.34s-.51,7.55-.72,11.32c-.14,2.63-.32,5.49-.56,8.58a79.35,79.35,0,0,0-.21,8.57Zm.21,1.36h-.17l0,.51h.17ZM1062.8,814a2.09,2.09,0,0,0,.1.6,1.72,1.72,0,0,1,.11.59l1.27-7.92-.52-.15c-.2,1-.41,2.18-.65,3.45A14.75,14.75,0,0,0,1062.8,814Zm1.43-8.1h.17l0-1h-.17Zm.25-2.57.35.16a3.56,3.56,0,0,1,.06-.77,4.41,4.41,0,0,0,0-.78h-.17Zm9.24,53.77h-.17l-.16.52Zm19.86-34.25h-.17a.15.15,0,0,0,.17.17Zm7.88,59.13h-.17l0,.68h.17Zm.28-1.89a1,1,0,0,1,.15-.69h-.35l0,.68Zm1-6.71a.46.46,0,0,0-.34-.16l0,.68-.29,1.38h.34l0-1.37Zm.44-2.07a14.45,14.45,0,0,1,.26-2.58h-.34l-.43,2.42Zm.55-4a7.48,7.48,0,0,1,0-1.2q.06-.51.21-1.2l-.77,2.42Zm.54-4.3a.72.72,0,0,0,.15-.52l-.18-.16Zm.59-2.59-.32.7.35.16Zm.44-2.06a.51.51,0,0,1,.16-.35h-.17Zm1.06-4.15-1,1.75a.46.46,0,0,0,.35.15Zm1.57-8.79-.16.18h.17Zm.91-3.45a.51.51,0,0,0,.16-.35l-.18-.16Zm1.51-5.7h-.17l-.32.53Zm12-48a4.07,4.07,0,0,0,.57-.79,1.73,1.73,0,0,0,.22-1,.15.15,0,0,1-.17-.17V786Z" transform="translate(-511.03 -761.5)"/><path class="cls-1" d="M1167.13,875.23a5.3,5.3,0,0,1,.81-1.49,9.87,9.87,0,0,0,1-1.49c-.83,2.32-1.94,4.92-3.32,7.82s-2.91,5.78-4.58,8.64-3.43,5.57-5.28,8.14a36.31,36.31,0,0,1-5.43,6.18,36.8,36.8,0,0,1-4.77-1.8c-1.22-.59-1.87-2.07-2-4.47a73,73,0,0,1,.8-13.81q1-6.8,2.17-13.68l-5.6,6.19q-1.32,1.41-2.88,3.35t-3.29,3.71a20.65,20.65,0,0,1-3.75,3,8.41,8.41,0,0,1-4.23,1.35,10.25,10.25,0,0,1-3.44-.57,13.49,13.49,0,0,1-3.57-1.76,10.84,10.84,0,0,1-2.75-2.64,6.08,6.08,0,0,1-1.15-3.38,27,27,0,0,1,1.49-8.87,59.7,59.7,0,0,1,4.27-10.08,76.38,76.38,0,0,1,5.84-9.28,33.93,33.93,0,0,1,6.19-6.63,34.47,34.47,0,0,1,5.52-3.53,14.76,14.76,0,0,1,6.28-1.68,11.54,11.54,0,0,1,6,1.34,28.58,28.58,0,0,1,5.18,3.58,2,2,0,0,1,.73,1.34,2.63,2.63,0,0,1-.31,1l-5-1.19a21.94,21.94,0,0,0-8,5.07,45.69,45.69,0,0,0-6.07,7.49,57.27,57.27,0,0,0-4.66,8.72q-2,4.61-3.72,8.77l.36.33,2.66-2.14,15.9-15.28a16.18,16.18,0,0,0,3.27-4.48,7.66,7.66,0,0,1,4-3.65l.23,1.7-.51.19c-.21.35-.29.56-.23.61s-.08.26-.41.61l.51-.18.14-.87.5-.36a1.08,1.08,0,0,1,1-.71,1.41,1.41,0,0,1,.88.48l-.13,1.2.67-.36v-.18l.87.32q-.91,3.29-1.92,6.4t-2.09,6.23l-.17.18c.12,0,.17-.06.17-.18.33-.35.49-.58.49-.7q1.26-3,2.28-5.81t2.28-5.65c1,.2,1.57.69,1.6,1.49a6,6,0,0,1-.2,1.72c-.15.57-.33,1.15-.54,1.73q-.78,2.43-2.23,7.09t-2.92,9.78q-1.44,5.1-2.48,9.67a28.92,28.92,0,0,0-1,6.63,11,11,0,0,0,2.9-2.76,32.85,32.85,0,0,1,2.55-3.08l.34,0a57.69,57.69,0,0,1-3.52,4.75,19,19,0,0,0-3,5.07h-.17v.17a.14.14,0,0,0,.16-.17,51.5,51.5,0,0,0,4.27-5.2q2-2.72,3.92-5.36c.33-.47.65-1,1-1.57a7.86,7.86,0,0,1,1.14-1.58l.82-.89a71,71,0,0,1-6,9.2,48.56,48.56,0,0,0-5.66,9.35l5.25-6.51-1.44,3,1.17-.9.19.68a3.77,3.77,0,0,1,.64-1.39,9.58,9.58,0,0,0,.8-1.4h.18v-.17l-.17.18h-.34a12.75,12.75,0,0,1,.63-1.73,4.18,4.18,0,0,1,1.15-1.41l0,.68.32-.69.5-.36.32-.7a5.31,5.31,0,0,1,1-1.92,5.33,5.33,0,0,0,1.05-1.92,9.73,9.73,0,0,1,.72-1.31,10.3,10.3,0,0,0,.73-1.31h-.17l.31-.7h-.17l1-1.92.2.68a6.64,6.64,0,0,1,.38-1.21,9,9,0,0,1,.57-1H1166l.5-.36a7.29,7.29,0,0,0,.63-1.56Zm-45.94-6.79a.34.34,0,0,1-.08.26.35.35,0,0,0-.07.26h.17Zm.47-1.38c.33-.36.49-.59.48-.71,1.07-2,2.09-4,3-5.92a58.21,58.21,0,0,1,3.22-5.76c.22-.35.6-.91,1.14-1.67a3.24,3.24,0,0,0,.79-1.82l-.31.69a21.67,21.67,0,0,0-2.13,2.9,48.29,48.29,0,0,0-2.5,4.37q-1.2,2.36-2.24,4.53t-1.5,3.39a1.12,1.12,0,0,0-.32.86Zm2.31,2.65.47-1.21a.55.55,0,0,0-.32.52,1,1,0,0,1-.32.7Zm.63,8a1,1,0,0,0-.15.69h.17Zm.63-1.56a105.2,105.2,0,0,1,5.28-13,65.7,65.7,0,0,1,7.37-11.9,14.35,14.35,0,0,0-3.55,3.72,61.38,61.38,0,0,0-3.57,5.69c-1.13,2-2.11,4-3,6s-1.47,3.59-1.88,4.86a21.41,21.41,0,0,0-.75,2.94c-.2,1-.39,2-.59,2.93A3.71,3.71,0,0,0,1125.23,876.18Zm5-19c-1.08,1.64-2.06,3.21-2.91,4.73a39.42,39.42,0,0,0-2.4,5q1.29-2.43,2.66-4.71t2.66-4.72Zm.63-6.53.5-.36h-.17Zm1.33,3.9a.55.55,0,0,1-.33.18h.34Zm.65-1.23a.16.16,0,0,0-.17.18h.17Zm18,30h.17V883h-.17Zm1.25,16a.29.29,0,0,0-.33.35Zm-.68-19.5.18.34,0-.51Zm.84,19.32a3.8,3.8,0,0,1,.75-.63,1,1,0,0,0,.39-1Zm0-23.11a1.87,1.87,0,0,0-.14.86h.17Zm0-.69.31-.69h-.17Zm1.39-4.32a22.74,22.74,0,0,0-1.08,3.46,4.08,4.08,0,0,0,.79-1.74C1153.45,872.22,1153.54,871.65,1153.64,871.08Zm-.25,27.22c.11,0,.17,0,.17-.09s0-.09.16-.09S1153.62,898.29,1153.39,898.3Zm1-1.4a1.25,1.25,0,0,1,.06-.52,1,1,0,0,0,.07-.51l-1,1.57Zm-.15-43.31a5.09,5.09,0,0,0-1.27,2.62Zm.31,43.13.17-.17A.15.15,0,0,1,1154.53,896.72Zm-.6-27a.67.67,0,0,0-.15.51Zm1.44,26.65c-.11,0-.17,0-.16.09s-.06.09-.17.09h.34Zm-1-28.38a1.39,1.39,0,0,0-.14.86l.16-.35Zm2.14,26.8h-.17l-.5.36h.17Zm0-39.89c-.56.25-.83.55-.82.89v.17a.48.48,0,0,0,.18.34Zm.14-1a1.9,1.9,0,0,0-.14.86A2,2,0,0,0,1156.63,853.85Zm2.64,36.37a1,1,0,0,0,.15-.69A1,1,0,0,0,1159.27,890.22Z" transform="translate(-511.03 -761.5)"/><path class="cls-1" d="M1183.48,838.36a75.33,75.33,0,0,1-6,23.92A142.79,142.79,0,0,1,1165.56,884c-1,1.41-2,2.75-3.11,4a17,17,0,0,1-4,3.39l-6.06-1.84.32-.53a39.68,39.68,0,0,0,3.78-4.67q1.63-2.37,3.25-5a122.89,122.89,0,0,0,15.56-44.71q-2.46-1.62-5.26-3.32a35.33,35.33,0,0,1-5.18-3.85,22.19,22.19,0,0,1-4-4.73,12,12,0,0,1-1.75-6,9.9,9.9,0,0,1,.56-3.53,11.75,11.75,0,0,1,1.85-3.4,10.73,10.73,0,0,1,2.82-2.58,6.89,6.89,0,0,1,3.48-1.06,9.44,9.44,0,0,1,4.31.87,15.52,15.52,0,0,1,6.94,5.32,18.11,18.11,0,0,1,3.28,8c.29,1.93.56,3.8.79,5.62s.45,3.7.63,5.63q4.53,2.4,9.07,5a55.32,55.32,0,0,1,8.43,5.87,12.38,12.38,0,0,1,4.42,9.09,31,31,0,0,1-1.46,9.46q-1.6,5.53-2.84,9.52c-.72,2.31-1.51,4.87-2.38,7.7s-1.69,5.71-2.44,8.64-1.4,5.84-1.92,8.71a37,37,0,0,0-.67,7.9,17.57,17.57,0,0,0,1.43,6.63l4.83,1-.12,1.37.17.17.82-1.06,1.37-.05a4.58,4.58,0,0,1,.59,2,2.85,2.85,0,0,1-.79,2.08,6.53,6.53,0,0,1-2,1.44,9.76,9.76,0,0,1-2.46.77,17.46,17.46,0,0,1-2.3.25,12.31,12.31,0,0,1-7.17-1.8,16.94,16.94,0,0,1-5-5,22.62,22.62,0,0,1-3-6.75,32.81,32.81,0,0,1-1.11-7.32,44.54,44.54,0,0,1,.86-9.7q1-5.43,2.52-11.13t3.29-11.07q1.78-5.37,3.18-9.53a44.34,44.34,0,0,0,1.69-5.36,19.52,19.52,0,0,0,.84-5.34,5,5,0,0,0-2.89-4.52A54.82,54.82,0,0,0,1183.48,838.36Zm-20.21-26.85-1,1.57.36.33A6.62,6.62,0,0,1,1163.27,811.51Zm2.31,68.22-.17.18h.18Zm1-8.94a1.8,1.8,0,0,0,.9-1.14,11.57,11.57,0,0,0,.37-1.64Zm.51-54.79a4.25,4.25,0,0,0,.38-1.39,6.31,6.31,0,0,1,.38-1.55,3,3,0,0,0-1,2.09A1.94,1.94,0,0,0,1167.09,816Zm8.15,11.87a8.81,8.81,0,0,1,0-1.12,7.19,7.19,0,0,0,0-1.11c0-.8-.12-1.82-.28-3.07s-.37-2.5-.64-3.75a36.2,36.2,0,0,0-1-3.56,7.72,7.72,0,0,0-1.29-2.52,7.45,7.45,0,0,0-2.53,5.91,11,11,0,0,0,1.64,5.33A10.06,10.06,0,0,0,1175.24,827.87Zm5,15.74c-.12,0-.28.3-.48.88q-1.66,6.39-3.68,12.53t-4.53,12.23a20.43,20.43,0,0,0,2.73-5c1-2.26,1.86-4.69,2.75-7.29a76.07,76.07,0,0,0,2.13-7.6C1179.7,846.91,1180.06,845,1180.24,843.61Zm-8.08,13.64q.63-1.39,1-2.52a19.65,19.65,0,0,0,.68-2.51l-.33.19Zm2.13-7.61a2.29,2.29,0,0,0-.44,2.24Zm.46-1.38-.15.51A.65.65,0,0,0,1174.75,848.26Zm.31-.87h-.17a1,1,0,0,1-.14.69A1,1,0,0,0,1175.06,847.39Zm.27-2.07.49-.7h-.17Zm.79-2.08-.19-.33,0,.51Zm4.39-1.52h-.17l0,.68h.17Zm.28-1.89h-.17l0,.52h.17Zm12.67,14.79a7.86,7.86,0,0,0-1.28,2.61q-.45,1.56-.75,2.94l-7.34,25.25-1.64,6.9a31.94,31.94,0,0,0,1.8-5q.68-2.59,1.44-5.19,2-6.92,4.06-13.67T1193.46,854.62Zm-7.3,40.83.34,0c0-.23,0-.37-.1-.42a.7.7,0,0,1-.1-.42A1.73,1.73,0,0,0,1186.16,895.45Zm10-38-7.52,24.91a55.71,55.71,0,0,0-1.17,5.86q-.4,2.92-1,5.86l.33-.36c.71-2.65,1.33-5.26,1.87-7.85s1.21-5.21,2-7.86q1.53-5.19,3.41-10.39a49,49,0,0,0,2.53-10.7Zm-6.66,44.74c.19-1.27.35-2.47.48-3.61s.28-2.35.47-3.61a120,120,0,0,1,3-12.86c1.23-4.21,2.5-8.45,3.84-12.72l2.46-8a32.49,32.49,0,0,0,1.43-8.09h-.34q-2.77,8.82-5.29,17.64t-5,17.64a33.12,33.12,0,0,0-1.1,5.17,32.12,32.12,0,0,0-.25,5.32l.06,1.54A7.82,7.82,0,0,0,1189.47,902.18Zm.33-15.25v-.17l-.16.18Zm1.49-6.21.17-.18h-.17Zm.3-1.38.17.16v-.17Zm.75,16.75v-.35h-.17A.48.48,0,0,0,1192.34,896.09Zm-.45-17.79.18.16v-.17Zm.72,15.72h-.17v.34h.17Zm.9-3.79h.17l0-.51h-.17Zm.44-2.07h-.17v.51h.18Zm.1-16.78-.17.17h.17Zm.5,14.53c-.11,0-.16.12-.15.35h.17Zm-.78-32.33h-.17l0,.68A1,1,0,0,0,1193.77,853.58Zm1.08,31.12-.16.18h.17Zm.29-1.55-.16.35.35.16A.7.7,0,0,0,1195.14,883.15Zm.47-1.22h-.17l0,.51h.17Zm.92-3.11v-.17h-.17A.14.14,0,0,0,1196.53,878.82Zm-.18-14.89-.16.18h.17Zm.48,13.68a.15.15,0,0,0-.16.18Zm.1-21.57h-.34l0,.51Zm.51,19.5.17-.18h-.17Zm.31-1c.11,0,.17-.12.16-.35h-.17Zm.3-1.21h.17v-.34H1198Zm1.86-5.54h-.17v.35h.17Zm.14-.86h.17v-.17h-.17Zm.3-1.38.17.16v-.17Zm2.16-6.75v-.18l-.16.18Z" transform="translate(-511.03 -761.5)"/><path class="cls-1" d="M1236.94,879.12a56.6,56.6,0,0,0,5.34,8.38,67.43,67.43,0,0,0,7.93,8.79,52,52,0,0,0,9.23,7,17,17,0,0,0,9.25,2.68,22.34,22.34,0,0,0,4.34-.58,21.79,21.79,0,0,1,4.35-.58,21.16,21.16,0,0,1,3.86.21l3.87.54a10.11,10.11,0,0,1-3.14,3.28,22.3,22.3,0,0,1-4.46,2.3,27.08,27.08,0,0,1-4.91,1.37,34.8,34.8,0,0,1-4.52.5,40.33,40.33,0,0,1-12.38-1.54,53.87,53.87,0,0,1-11.81-4.89,60.84,60.84,0,0,1-10.45-7.43,49.43,49.43,0,0,1-8.28-9.3,4.81,4.81,0,0,0-.63-.74,2,2,0,0,0-1-.4l.11,3.25a44.05,44.05,0,0,0,.54,5.55,41.82,41.82,0,0,1,.53,5.54c0,.57,0,1.17,0,1.8s0,1.22,0,1.8a10.51,10.51,0,0,0-2.31,0,6.85,6.85,0,0,1-2.32-.17,5.66,5.66,0,0,1-2.6-.94,12.71,12.71,0,0,1-5.89-6.9,33.25,33.25,0,0,1-1.52-9.1,98,98,0,0,1,1.43-20.43q1.79-10.15,3.83-20.16,4.08-20.34,8.85-40.88.58-2.58,1.57-6.39t2-7.85c.65-2.71,1.18-5.32,1.61-7.85a31.22,31.22,0,0,0,.55-6.18,23.34,23.34,0,0,0-.37-3.5,21.81,21.81,0,0,1-.38-3.49,4.37,4.37,0,0,0,.93-.12,4.55,4.55,0,0,1,.94-.12,2.68,2.68,0,0,1,1,.31,4,4,0,0,1,.87.48,11.73,11.73,0,0,1,5.34,5.8,20.93,20.93,0,0,1,2,8,60.55,60.55,0,0,1-1.35,15.11q-1.64,7.42-3.25,15-2.19,10.86-4.54,21.73t-3.86,21.87a79,79,0,0,1,10.71-14.32,67.55,67.55,0,0,1,14.25-11,4.84,4.84,0,0,1,2.54-.94,5.31,5.31,0,0,1,2.5.59,14.14,14.14,0,0,1,2.54,1.63,9.2,9.2,0,0,1,2,2.24,4.75,4.75,0,0,1,.86,2.45,12.56,12.56,0,0,1-2.48,7.45c-1.74,2.57-3.32,4.73-4.74,6.5q-4.76,6-9.34,11.88T1236.94,879.12Zm-11.62-4.21h.17v-.17Zm.14-.86a15.89,15.89,0,0,0,3.09-4.82c.73-1.79,1.53-3.56,2.38-5.3a41.24,41.24,0,0,1,2.74-4.81c1-1.46,2-3,3.09-4.64l.16-.35a18.21,18.21,0,0,0-3.44,4.23q-1.63,2.63-3.07,5.41c-1,1.86-1.87,3.72-2.71,5.58S1226.1,872.77,1225.46,874.05Zm.9-8.6.34-.18q1.27-2.44,2.57-4.8a45.19,45.19,0,0,1,2.92-4.63c.43-.59.87-1.17,1.31-1.76a16.64,16.64,0,0,0,1.13-1.75,5.93,5.93,0,0,0,1.16-1.24,43.52,43.52,0,0,1,6.2-6.38c2.27-1.9,4.51-3.87,6.72-5.88a31.88,31.88,0,0,0-10.06,8.31q-4.19,5.19-7.94,10.46-1.31,1.93-2.44,3.76A21.1,21.1,0,0,0,1226.36,865.45Zm.46,8.21.18.16v-.17Zm.48-5.84.18.33.33-.35Zm1.29,7.49,1-1.07,13.12-16.55q3.43-4.4,6.88-8.88t6.52-9.22l-.52-.32a57.67,57.67,0,0,0-16.85,15.14,90,90,0,0,0-11,19.9Zm0-9.42h-.34l0,.51Zm.3,3.58h-.17l.18.17Zm-.15-4.27,0,.51.32-.52Zm.81-1.23q-.68,0-.66.54v.17l.19.34Zm.14-.86a2,2,0,0,0-.14.86,1,1,0,0,0,.32-.69Zm.32-.69,0,.68.49-.53A.69.69,0,0,1,1230,862.42Zm.49-.71,0,.86a1,1,0,0,0,.32-.7Zm.49-.7,0,.52.32-.53Zm.34,0a1,1,0,0,0,.32-.69h-.17A1,1,0,0,0,1231.34,861Zm.46-1.56,0,.52.32-.53Zm.79-1.91-.32.7a.69.69,0,0,1-.15.52l0,.68a1.15,1.15,0,0,0,.32-.86.88.88,0,0,0,.41-.36,2.34,2.34,0,0,1,.41-.53l-.18-.16Zm1.33-1.07-.51,0,0,1a1,1,0,0,0,.31-.69,1,1,0,0,1,.68-.2A.69.69,0,0,0,1233.92,856.46Zm.65,18.47-.18-.17v.17Zm.58,2c1.33-1.3,2.59-2.66,3.8-4.07l18.66-24.28a7.82,7.82,0,0,0,.89-1.74l.7-1.91c-.43.82-.89,1.6-1.37,2.36s-1,1.49-1.55,2.2l-20.48,26.39Zm-.41-21.73-.35,0,0,1.19a2,2,0,0,0,.14-.86,1,1,0,0,0,.67-.19A.71.71,0,0,1,1234.74,855.23Zm.82-1.05-.18-.17-.17.18,0,1.2.32-.87a.68.68,0,0,1,.5-.19A.67.67,0,0,0,1235.56,854.18Zm.81-1.23H1236l0,1.37.31-1a.66.66,0,0,0,.51-.19A.68.68,0,0,1,1236.37,853Zm1.32-1.41a.69.69,0,0,0-.52-.16l0,.86.32-.53a1,1,0,0,0,.68-.19Zm3.65,11.34a.15.15,0,0,0-.17.17Zm2.94-3.87a6.84,6.84,0,0,0-1.64,2.11,3.55,3.55,0,0,0,.91-1C1243.82,859.74,1244.07,859.36,1244.28,859Zm1-1.06v-.17h-.17l-.49.87Zm.4-13.2-.18-.16-.66.53Zm1.23,10.74-.81,1.23A3.42,3.42,0,0,0,1246.9,855.49Zm1.32-1.41h-.17l-.66.88Zm4.09-5.28a4.24,4.24,0,0,1,1.06-1.58,4,4,0,0,0,1.06-1.58,39.45,39.45,0,0,0-5.07,6.86,16,16,0,0,0,1.48-1.85A14.9,14.9,0,0,1,1252.31,848.8Zm3.26-4.74a3.37,3.37,0,0,0-.81,1.23Zm4.76-1h-.17l0,.51A.69.69,0,0,0,1260.33,843Z" transform="translate(-511.03 -761.5)"/><path class="cls-1" d="M1298.33,847.88a15.88,15.88,0,0,1-2.16,8.63,24.61,24.61,0,0,1-6.06,7,32.87,32.87,0,0,1-8.16,4.73,25.72,25.72,0,0,1-8.69,1.93,6.4,6.4,0,0,0-.42,2.84l.1,2.82c0,.46.07,1.14.16,2.05a16.07,16.07,0,0,0,.51,2.72,9.48,9.48,0,0,0,1,2.36,1.7,1.7,0,0,0,1.47,1,7.19,7.19,0,0,0,4.57-1.7,8.58,8.58,0,0,0,2.64-4l.16-.18,0,.51a3.23,3.23,0,0,1-.7,2.17,6.29,6.29,0,0,0-1,2,3.8,3.8,0,0,0,1.82-1.86,14.26,14.26,0,0,1,1.29-2.35,3,3,0,0,1,.37.84,2.14,2.14,0,0,1-.46,1.47,3.16,3.16,0,0,0-.64,1.48l1.21.13-.16.52.35.15v-.17h.51l-.18-.34h.17l.14-.69h.17l.32-.7,0,.69a2.34,2.34,0,0,0,.62-1.74l.66-.88a8.19,8.19,0,0,1-3,6.1,10.43,10.43,0,0,1-6.42,2.45q-7.87.27-12.4-4.36t-4.79-12.33a33.38,33.38,0,0,1,1.88-12.22,48.1,48.1,0,0,1,5.52-11.15A18.17,18.17,0,0,1,1284,839a17.65,17.65,0,0,1,2.32.09,19.56,19.56,0,0,1,2.32.44l-3.64-6.21,1.36-.39a17.16,17.16,0,0,1,8.49,5.44A15.15,15.15,0,0,1,1298.33,847.88ZM1267.15,857a.15.15,0,0,0-.16.18h.17Zm.77-2.59-.49.87.35.16Zm.16-.35-.17.18h.17Zm2.6-3.86a.64.64,0,0,1,.07-.43.7.7,0,0,0,.07-.43l.5-.19a.72.72,0,0,0-.5.19l-.81,1.4-.32.52v.17a4.14,4.14,0,0,0-.57.8c-.16.29-.35.61-.56,1a2.27,2.27,0,0,0,1.13-1.76l.32-.69Zm.08,12c-.12.12-.16.41-.15.86h.18Zm.25-7.54v0Zm.39,6.49a17.79,17.79,0,0,1,2.39-5.47,26.47,26.47,0,0,0,2.71-5.49,26.54,26.54,0,0,0-3.48,5.09A11.54,11.54,0,0,0,1271.4,861.14Zm.39-8.57a1.44,1.44,0,0,0-.15.69A1,1,0,0,0,1271.79,852.57Zm1-1.06a1.07,1.07,0,0,0-.24.43c-.06.18-.14.27-.25.27h.17A1,1,0,0,0,1272.78,851.51Zm16.38-6.39a15.59,15.59,0,0,0-5.38,2.67,22.29,22.29,0,0,0-4.39,4.34,26,26,0,0,0-3.15,5.42,23.66,23.66,0,0,0-1.68,5.71,10.59,10.59,0,0,0,4.89-2.23,27.44,27.44,0,0,0,4.8-4.53,28.31,28.31,0,0,0,3.58-5.43,11,11,0,0,0,1.35-5.27Zm-12,4.52a1.05,1.05,0,0,0-.5.36l.68-.36v-.17Zm11.3,4.92a.93.93,0,0,0-.14.69l-.51.36.51-.19v-.17Zm.82-1.06a2.76,2.76,0,0,0,.31-.87l-.31.7Zm.79-1.91c.23,0,.34-.12.33-.35h-.34Zm1.25,6.46-.33.35Zm-.12-3.59h.17l.15-.51Zm.3,3.58a.69.69,0,0,0,.5-.18A.66.66,0,0,0,1291.5,858Zm3.7-6.63c-.22.35-.48.82-.81,1.4s-.67,1.19-1.05,1.83a20.45,20.45,0,0,0-1,1.83,3.39,3.39,0,0,0-.38,1.21,11.11,11.11,0,0,0,2-3A19.72,19.72,0,0,0,1295.2,851.41Z" transform="translate(-511.03 -761.5)"/><path class="cls-1" d="M1352.05,807.83a1.36,1.36,0,0,0,.82,1.34,7.5,7.5,0,0,0,1.64.45,10.76,10.76,0,0,1-4.68,3.25,48.68,48.68,0,0,1-6.94,2.21c-2.49.6-5,1.12-7.48,1.54s-4.48.79-6,1.07a297.28,297.28,0,0,0-6.55,30.7q-2.46,15.5-4.47,31.14-1.1,8.25-1.65,16.66a165.07,165.07,0,0,0-.27,16.79,52,52,0,0,0,.67,6.74,50.25,50.25,0,0,0,1.51,6.53,4.65,4.65,0,0,1,.22,1.37,1.64,1.64,0,0,1-1.23,1.66,7,7,0,0,1-2.14.51c-.35,0-.64-.27-.89-.83l-1,1.58a13.13,13.13,0,0,0-3.24-1.17,14.33,14.33,0,0,1-3.24-1.17,8.26,8.26,0,0,1-3.85-3.64,21.63,21.63,0,0,1-2.09-5.57,38,38,0,0,1-.91-6.13c-.13-2.05-.22-3.82-.27-5.3a237.05,237.05,0,0,1,.62-27.15q1.08-13.65,2.71-27.06.42-3.09.65-6.27a57.07,57.07,0,0,1,.83-6.28q.57-3.62,1.23-7.23t1.05-7.23c.1-.57.22-1.15.37-1.72a6,6,0,0,0,.2-1.72c0-.46-.31-.7-.88-.74s-1,0-1.2,0c-.92,0-1.8.09-2.65.17s-1.74.15-2.65.18l.17-.18a7.69,7.69,0,0,1-2.88-1.35,11.19,11.19,0,0,1-2.38-2.23l.13-1-1.57-.8a7,7,0,0,1,.62-1.91,3,3,0,0,1,1.68-.91,35.75,35.75,0,0,1,5.69-1.4,53.2,53.2,0,0,0,5.69-1.22q2.77-3.87,5-7.8a59.11,59.11,0,0,0,4-8.44,45.66,45.66,0,0,1,3-6.69c1.18-2.16,2.36-4.28,3.54-6.38a10,10,0,0,1,1.06-1.57,2.26,2.26,0,0,1,1.77-.75l2.09,1-1.1,2.78a16.4,16.4,0,0,0,1.31-1.59l1.14-1.58.72,1,1.36-.22-.77,2.42,1.33-1.24,1.9.61.06,1.71,1.36-.39c.58.44,1.2.88,1.84,1.31a2.21,2.21,0,0,1,1,1.85,23.23,23.23,0,0,1-.83,3.19c-.56,1.91-1.2,4-1.92,6.32l-2.77,9a6.3,6.3,0,0,1,1.88-.15,4.08,4.08,0,0,0,1.87-.33,24.23,24.23,0,0,1,4.34-.75q2.13-.15,4.53-.24a7.87,7.87,0,0,1,3.87.55A12.58,12.58,0,0,1,1352.05,807.83Zm-47.72,81.78h-.17l.07,2.23h.18Zm.45-7.21h-.18l.07,2.05h.18Zm.45-2.92c.14-2.29.35-4.64.61-7s.52-4.76.8-7.05l-.54-.15-1.22,14.25Zm1.53-15.63q1.5-10.85,2.84-21.5t3.7-21.36a28.23,28.23,0,0,0-1.25,4.07c-.52,2-1,4.43-1.58,7.24s-1,5.83-1.52,9-.89,6.28-1.25,9.21-.66,5.5-.87,7.73a43.38,43.38,0,0,0-.27,4.72Zm1.49,32.81L1308,895l-.11,1.71Zm-.32-4.27h.17V892h-.17Zm.61-6.87h-.17l0,3.25h.17Zm.37-4.12h-.34l0,1.2.05,1.2h.17Zm9.15-61.6a22.46,22.46,0,0,0-1.61,5.28c-.65,2.82-1.33,6.2-2,10.17s-1.4,8.24-2,12.82-1.2,8.92-1.68,13-.88,7.71-1.16,10.92-.41,5.38-.38,6.51l-.14.86q1.11-7.56,2-15t2-14.79q1.1-7.56,2.47-14.89T1318.06,819.8Zm-6.25,95.4a398.16,398.16,0,0,1,3.27-48.48q3.09-24,8.43-47.8l-1.53.23a201,201,0,0,0-4.56,21.64q-1.67,10.94-3.17,21.77-1.32,11.18-2.39,22.33a173.24,173.24,0,0,0-.67,22.45l.14,3.94A20.71,20.71,0,0,0,1311.81,915.2Zm-1-105.42a.61.61,0,0,0-.66.71l0,.34Zm3.42,88h-.17l0,.51h.17Zm.52-4.64,0-.86a1.43,1.43,0,0,0-.14.87Zm.32-5.66,0-.51h-.17l0,.52Zm.52-4.64h-.17l0,.68h.18Zm.39-3.61h-.17l0,.68Zm.25-2.58a.93.93,0,0,1-.19-.67h-.17a1,1,0,0,0,.19.68Zm.2-4.11h-.17l0,1.2h.17Zm.41-2.93h-.17l0,.68h.17Zm-.88-30.26v.51h.18l0-.51Zm1.32,28.19,0-1.36h-.18l.05,1.37Zm-.89-30.44a2.06,2.06,0,0,1-.14.87h.17l.14-.86Zm1.3,27.52,0-1-.34,0,0,1Zm-1-28.9h.17l0-.34Zm1.42,26.15a1.87,1.87,0,0,0-.2-.85h-.17l0,.86Zm-1-28.73,0,.52h.17l0-.51ZM1318.4,859l0-.69h-.17l0,.68Zm.44-2.07,0-1.2h-.17l-.13,1.2Zm-.79-27.53-.32.52h.34Zm-.79-22.74a.15.15,0,0,0-.17.17Zm2,47.69a2.44,2.44,0,0,0-.21-1h-.17l0,1Zm-1.1-26.5.18.17.32-.7Zm1.31,22.89h-.17l0,1.37h.17Zm.13-1.2a.53.53,0,0,0,.35.16l0-1.2h-.17Zm-.67-24.28.31-.87-.35-.16Zm1.24,21H1320l0,1.2h.18Zm-.82-23.6V823a.53.53,0,0,0,.16-.35Zm1.29,22.38,0-1h-.17l0,1Zm.41-3.09-.31.86.35.16Zm.61-2.08a.62.62,0,0,0-.66.71c0,.23,0,.37.1.42a.65.65,0,0,1,.1.43Zm.45-1.9c-.45.25-.67.54-.65.88a.65.65,0,0,0,.1.43.72.72,0,0,1,.1.42Zm.5-34.59a4.43,4.43,0,0,0-1.2,2.35c-.14.86-.31,1.75-.5,2.67a4.46,4.46,0,0,0,1.2-2.35C1322.26,805.19,1322.43,804.3,1322.62,803.38Zm-.73,32.89a5.3,5.3,0,0,0,.22,1.53,4.46,4.46,0,0,1,.06-.77,3.56,3.56,0,0,0,.06-.77Zm.65-1,0-.85a2.56,2.56,0,0,0-.31.86Zm.1-1.89a.7.7,0,0,0-.15.52l.16-.17Zm.46-1.72a.63.63,0,0,0-.16.51Zm.28-1.56-.16.18a2.69,2.69,0,0,1-.06.69,2.69,2.69,0,0,0-.06.69l.29-1.38Zm0,0a10.32,10.32,0,0,0,.76-2.76,1.78,1.78,0,0,0-.72,1.22A10.89,10.89,0,0,0,1323.38,830.05Zm-.76-26.67c0-.12,0-.18.08-.18s.09-.06.08-.17A.51.51,0,0,0,1322.62,803.38Zm1.69,23.73c.19-1.14.38-2.12.58-2.93a2.64,2.64,0,0,0-.79,1.91A2.44,2.44,0,0,0,1324.31,827.11Zm-.17.18h.17v-.17Zm-.77-36.95c0,.12,0,.17-.08.17s-.09.07-.08.18A.51.51,0,0,0,1323.37,790.34Zm0-.34a1.19,1.19,0,0,0,.32-.87Zm.32-.87.31-.69A.94.94,0,0,1,1323.67,789.13Zm1.64,32.47a1.79,1.79,0,0,0-.31.95,3,3,0,0,1-.13,1l.47-1.22Zm.13-1.2c.45-.13.67-.54.65-1.22l0-.69Zm1.56-14.27q1.24-3.46,2.16-6.83t2.15-6.84a4.69,4.69,0,0,1-.81,1.23,6.83,6.83,0,0,0-.82,1,16,16,0,0,0-1,2.43c-.47,1.28-1,2.64-1.49,4.08s-1,2.77-1.31,4a10.16,10.16,0,0,0-.52,2.33h.34C1326.36,807.53,1326.8,807.06,1327,806.13Zm-1.71-19.45a1,1,0,0,0,.32-.7A1,1,0,0,0,1325.29,786.68Zm.44,7.52.5-.36h-.52Zm.67-10.13a4.76,4.76,0,0,0-.48,1c-.1.29-.21.61-.31,1l.8-1.57Z" transform="translate(-511.03 -761.5)"/><path class="cls-1" d="M537.89,800.34A104.67,104.67,0,0,1,540,787.59a73.21,73.21,0,0,1,4-12.23,23.73,23.73,0,0,1,11.64-12.15,17.32,17.32,0,0,1,7.18-1.71,23.14,23.14,0,0,1,8.47,1.71,43.17,43.17,0,0,1,7.78,3.94,26.59,26.59,0,0,1,6.85,6.07,24.72,24.72,0,0,1,3.85,7.1,36.52,36.52,0,0,1,1.71,8c.28,2.85.43,5.88.43,9.07a94,94,0,0,1-1.63,17.7,137.24,137.24,0,0,1-4.53,17.2q-2.4,7-6,15.65a181.83,181.83,0,0,1-8.21,17.11,140.54,140.54,0,0,1-10,15.82A52.84,52.84,0,0,1,550,892.72a17.62,17.62,0,0,1-10.78,3.42,20.57,20.57,0,0,1-4.62-.51,28.46,28.46,0,0,1-12.31-5.22,24.72,24.72,0,0,1-7.1-9,39.78,39.78,0,0,1-3.34-11.72,99,99,0,0,1-.86-13.09,119.5,119.5,0,0,1,.86-13.94,127.34,127.34,0,0,1,2.57-14.54A98.53,98.53,0,0,1,518.9,814a63.47,63.47,0,0,1,6.5-12.32c.57-.79,1.2-1.59,1.89-2.39a3.4,3.4,0,0,1,2.73-1.2,7.18,7.18,0,0,1,3.85,1.11A7.43,7.43,0,0,0,537.89,800.34Zm-13.68,11.8a.69.69,0,0,0-.17.51ZM524,854.4l.51.17v-2.05h-.34a4.62,4.62,0,0,1-.09.94A4.58,4.58,0,0,0,524,854.4Zm.17,3.59v-.34H524A.46.46,0,0,0,524.21,858Zm5-55.94c-.8,1.25-1.69,2.73-2.65,4.44a30.43,30.43,0,0,0-2.14,4.45,12.7,12.7,0,0,0,2.82-4.19C527.83,805.21,528.48,803.65,529.17,802.05Zm-4.79,47.21h.34l-.17-.51A.69.69,0,0,0,524.38,849.26Zm1-4.1h-.51V846a.48.48,0,0,0,.17-.34C525.06,845.56,525.17,845.39,525.4,845.16Zm-.34-3.08h.86v-2.22a16.45,16.45,0,0,0-.17-2.23c-.12.8-.2,1.54-.26,2.23A11.83,11.83,0,0,1,525.06,842.08Zm.69-4.45a3.4,3.4,0,0,0,.94-1.8c.28-1,.57-2,.85-3.16s.52-2.25.69-3.34.31-1.85.43-2.31a92.08,92.08,0,0,1,3.16-11.29,103.25,103.25,0,0,1,4.53-11,2.58,2.58,0,0,0,.35-1c-.35.34-.72.68-1.12,1a4,4,0,0,0-.94,1.2,32.83,32.83,0,0,0-3.08,6.84q-1.37,4.11-2.48,8.56c-.74,3-1.4,5.87-2,8.72S526.09,835.47,525.75,837.63Zm.34-18.13-.17.17h.17Zm6.84-15.57-.51-.17a32.81,32.81,0,0,0-2.14,3.5,12.61,12.61,0,0,0-1.28,3.68Zm4.45,12.15-.34-.18a3.23,3.23,0,0,1-.34.86,34.65,34.65,0,0,0-1.8,6.33c-.4,2.17-.89,4.34-1.45,6.5a106.79,106.79,0,0,0-2.83,20.1q-.42,10-.43,20.28a37.8,37.8,0,0,0,1.12,8.29,35.67,35.67,0,0,0,2.65,8,7.24,7.24,0,0,0,1.88-1.37,65.19,65.19,0,0,0,13.69-16.6q5.29-9.22,10.26-19c-1.14-.34-2.22-.65-3.25-.94a13.89,13.89,0,0,1-3.08-1.28,28.39,28.39,0,0,1-7.35-5.9,29.27,29.27,0,0,1-4.71-7.36,38.3,38.3,0,0,1-2.65-8.47Q537.9,820.87,537.38,816.08Zm12.32-43.46.51-.34a1.43,1.43,0,0,0-1,.6,7.41,7.41,0,0,0-.94,1.45c-.28.57-.54,1.14-.77,1.71s-.4,1-.51,1.2A15.35,15.35,0,0,1,548.5,775,6,6,0,0,0,549.7,772.62Zm-1.2,24.64-.17.17h.17Zm10.09-24.64a5.91,5.91,0,0,0-3.33,2.91,37.42,37.42,0,0,0-2.65,5.3,45.86,45.86,0,0,0-2,5.82c-.51,1.94-.94,3.48-1.28,4.62l.68-1a23.89,23.89,0,0,0,1.88-4.45c.46-1.48.94-3,1.46-4.44a26.49,26.49,0,0,1,2-4.37A23.87,23.87,0,0,1,558.59,772.62Zm-9.06,7.87v-.17l-.17.17Zm1.19-9.24h-.34l.34.52Zm20.36-2.74-2.22.69q-5.31,1.89-8.81,7.87a55.55,55.55,0,0,0-5.56,13.51,100,100,0,0,0-2.91,15.06,113.84,113.84,0,0,0-.86,12.32,46.2,46.2,0,0,0,2,13.6,51.76,51.76,0,0,0,5.73,12.4,16.16,16.16,0,0,0,1.2,1.71,14.82,14.82,0,0,1,1.2,1.71,135.35,135.35,0,0,0,5.9-13.34q2.82-7.35,5.22-13.69a103.66,103.66,0,0,0,4.28-15.4A83.06,83.06,0,0,0,577.76,789a54.52,54.52,0,0,0-1.12-11A17.59,17.59,0,0,0,571.08,768.51Zm-19.16,7.36a5.16,5.16,0,0,1,1.37-2.22H553l-.69.85a3.72,3.72,0,0,1-.68,1.2l-.51,1.2v.68A3.94,3.94,0,0,1,551.92,775.87Zm4.45,3.76a.15.15,0,0,0-.17-.17ZM557.74,863q-.51.51-.51.69Zm-.17-85.54a.15.15,0,0,0-.17-.17v.17Zm14.37,55.26q-.86,1.71-3,6.07l-4.44,9.07q-2.31,4.71-4.19,8.73t-1.89,5q1.71-2.57,3.68-6.24t3.77-7.79q1.78-4.09,3.42-8T571.94,832.67Zm13-16.08c-.68,2.17-1.34,4.3-2,6.41s-1.34,4.25-2.14,6.42q-2.91,7.88-6.15,15.23t-7,14.88q-1.36,2.57-2.82,5.13c-1,1.71-1.86,3.42-2.65,5.13a14.64,14.64,0,0,0-.6,1.37,12.65,12.65,0,0,1-.6,1.37,7.91,7.91,0,0,0,1.88-2.56A247.87,247.87,0,0,0,576,845.42a123.84,123.84,0,0,0,8.81-26.61,3.59,3.59,0,0,0,.17-1.11Zm-22.75,46.19h.17v-.17Zm2.73-4.79c.8-1.37,1.72-3,2.74-5s2-3.94,2.91-6,1.77-4.08,2.57-6.07a35.61,35.61,0,0,0,1.71-5.39q-.35.85-1.88,4.36t-3.34,7.53q-1.8,4-3.34,7.27a14,14,0,0,1-1.88,3.42Zm6.68,2v-.17h-.17Zm3.42-7.52-.17.17H575Zm1-1.72v-.17h-.17Zm1-20.53v-.17h-.17ZM578.78,844l-.17.34h.17Zm1.2-2.56c.11,0,.17-.06.17-.18H580Zm6-29.09-1,2.57a.7.7,0,0,0,.51.17Zm-.69,3.77-.34-.18v.52Zm.69-4.8h-.17l.17.52Zm.17-2.22.17.17v-.17Zm.51-1.37-.34.17.34.35Z" transform="translate(-511.03 -761.5)"/><path class="cls-1" d="M600.85,873.9c-.57,0-.89.23-.94.68a12.72,12.72,0,0,1-.26,1.37l-1,6q-1.73,9.75-3.26,19.85a133.3,133.3,0,0,0-1.54,20,6.2,6.2,0,0,0,.35,2.14,6.45,6.45,0,0,1,.34,2.14c0,.57-.66,1-2,1.37a13.3,13.3,0,0,1-2.65.51,8.71,8.71,0,0,1-2.4-.6c-1.14-.4-2-.71-2.56-.94-2.05-.91-3.28-2.17-3.68-3.76a21.89,21.89,0,0,1-.6-5.31,101.48,101.48,0,0,1,1.2-15.48q1.2-7.79,2.22-15.48l5-36.1c.46-3.19,1-6.36,1.54-9.49a53,53,0,0,0,.86-9.5q0-2.56-1.11-3.51a2.87,2.87,0,0,1-1.11-2.31,1.18,1.18,0,0,1,.77-1.28,5.09,5.09,0,0,1,1.62-.26,7.28,7.28,0,0,1,3.25.86,16.43,16.43,0,0,1,3.25,2.14,24.4,24.4,0,0,1,2.82,2.74,9.21,9.21,0,0,1,1.8,2.82,10.83,10.83,0,0,1,.86,4.19,10.78,10.78,0,0,0,.85,4.19,4.07,4.07,0,0,0,.69-1q1.71-2.91,3.67-5.74a63,63,0,0,1,4.2-5.38,31.86,31.86,0,0,1,3.67-3.43,56,56,0,0,1,5-3.59,40.28,40.28,0,0,1,5.3-2.91,11.84,11.84,0,0,1,4.7-1.2,10.93,10.93,0,0,1,4.28.95,13.92,13.92,0,0,1,3.94,2.48,13.38,13.38,0,0,1,2.82,3.59,8.9,8.9,0,0,1,1.11,4.28,14.87,14.87,0,0,1-.34,2.9,47.33,47.33,0,0,1-4.88,11.89,78.93,78.93,0,0,1-8.29,12A75,75,0,0,1,619.84,866a42.07,42.07,0,0,1-11,6.58c-.68.23-1.8.57-3.34,1a13.29,13.29,0,0,1-3.33.68,1.47,1.47,0,0,1-.69-.17A1.55,1.55,0,0,0,600.85,873.9Zm-15.4,25.66h-.17a.5.5,0,0,0,.17.34Zm.34-2-.17.17h.17Zm.35-2H586v1h.17Zm.51-3.43-.51.86.34.17a1.29,1.29,0,0,1,.08-.51A1.18,1.18,0,0,0,586.65,892ZM587.5,908h.18v-.69h-.18Zm.35-25.32H588v-.69h-.17Zm.68-5,.17-.17h-.17Zm.51-2.39h-.17v.34A.5.5,0,0,1,589,875.27Zm-.17,22.92H589v-.68h-.17Zm.86-5.64h-.34a.46.46,0,0,0,.17.34A.46.46,0,0,1,589.73,892.55Zm6.84-24.64h-.34a12.25,12.25,0,0,0-.68,3.08c-.23,1.6-.49,3.34-.77,5.22s-.55,3.71-.77,5.47-.4,3.05-.52,3.85q-.51,2.91-1.11,7T591.1,901c-.46,2.91-.83,5.78-1.11,8.64s-.43,5.3-.43,7.35c0,.57,0,1.2.08,1.88s.09,1.31.09,1.89h.34a45.08,45.08,0,0,1,.26-4.79c.17-1.6.37-3.2.6-4.79q.68-4.62,1.11-9.33c.28-3.14.65-6.24,1.11-9.32l2.22-15.74c.23-1.25.46-2.48.69-3.68a36.22,36.22,0,0,0,.51-3.68Zm-5.81,16.6v.17h.17Zm.51-2.4h-.17v.52h.17Zm5.64-16.76-.17.17h.17Zm.18-.69h.17v-.34h-.17Zm1.36-11.29a.74.74,0,0,1,.52.17v-1.37Zm1-2.91q-.51.35-.51.69V852Zm0,0-.17-.68h-.17Zm2.57,10.95c.57-1.14,1.08-2.28,1.54-3.42s.91-2.34,1.37-3.59a85.87,85.87,0,0,1,4.1-9.24q2.22-4.27,4.79-8.9a2.69,2.69,0,0,1-.51.43.88.88,0,0,0-.34.43,95.43,95.43,0,0,0-6.51,11.63A63.94,63.94,0,0,0,602.05,861.41Zm.34,6.16.17.17a56.46,56.46,0,0,0,9.5-6.07,74.2,74.2,0,0,0,8.81-8.13,89.9,89.9,0,0,0,7.52-9.32,59.41,59.41,0,0,0,5.65-9.84c.57-1.37,1.17-2.93,1.8-4.7a15.29,15.29,0,0,0,.94-5,3.44,3.44,0,0,0-1.2-2.74,21.71,21.71,0,0,0-7.61,3.17,41.17,41.17,0,0,0-6.42,5.21,45.17,45.17,0,0,0-10,14.38q-3.51,8-6.76,16.25c-.45,1.14-.88,2.25-1.28,3.33S602.73,866.43,602.39,867.57Zm2.22-22.75a10.71,10.71,0,0,0,1.2-2,20.61,20.61,0,0,0,1-2.14Zm5.82-6.33h-.17v.34A.46.46,0,0,1,610.43,838.49Zm17.79,15.91.17-.34-.51.51Zm12.32-20.87-.51.68c-.58,1.14-1.12,2.28-1.63,3.42s-1,2.28-1.62,3.42c-1.15,2.06-2.31,4-3.51,5.91s-2.43,3.79-3.68,5.73a80.32,80.32,0,0,0,5.48-7.27,39.28,39.28,0,0,0,4.1-8Zm-9.24,10.09a3.25,3.25,0,0,0-.94,1.2c-.4.68-.66,1.14-.77,1.37.34-.46.66-.86.94-1.2A5,5,0,0,0,631.3,843.62Zm0-.17a6.08,6.08,0,0,0,1.37-2.23Zm1.88-3.08a1,1,0,0,0-.34.68A1,1,0,0,0,633.18,840.37Zm1.89-3.59c-.35.57-.69,1.17-1,1.79a18.06,18.06,0,0,0-.86,1.8Zm1.88-4.11c0-.11,0-.17-.09-.17s-.08-.06-.08-.17v.34Zm4.1-.86h-.17v.35c0-.12,0-.17.09-.17S641.05,831.93,641.05,831.81Z" transform="translate(-511.03 -761.5)"/><path class="cls-1" d="M676.12,842.42a15.87,15.87,0,0,1-2.46,8.56,24.47,24.47,0,0,1-6.29,6.75,32.1,32.1,0,0,1-8.33,4.45,25.55,25.55,0,0,1-8.75,1.63,6.4,6.4,0,0,0-.51,2.82v2.82c0,.46,0,1.14.08,2.06a16.11,16.11,0,0,0,.42,2.73,9.53,9.53,0,0,0,.93,2.4,1.68,1.68,0,0,0,1.43,1,7.2,7.2,0,0,0,4.63-1.54,8.54,8.54,0,0,0,2.78-3.93l.16-.17v.51a3.26,3.26,0,0,1-.77,2.14,6.28,6.28,0,0,0-1.11,2,3.88,3.88,0,0,0,1.88-1.8,15.16,15.16,0,0,1,1.37-2.31,3,3,0,0,1,.35.86,2.17,2.17,0,0,1-.52,1.45,3.14,3.14,0,0,0-.68,1.46l1.2.17-.18.51.35.17V877h.51l-.17-.34h.17l.17-.69H663l.34-.68V876a2.29,2.29,0,0,0,.69-1.71l.68-.85a8.12,8.12,0,0,1-3.25,6,10.39,10.39,0,0,1-6.5,2.23q-7.87,0-12.23-4.79t-4.36-12.49a33.53,33.53,0,0,1,2.31-12.15,48,48,0,0,1,5.9-10.95A18.16,18.16,0,0,1,662.1,833a15.9,15.9,0,0,1,2.31.17,19.86,19.86,0,0,1,2.31.52l-3.43-6.33,1.37-.35a17.31,17.31,0,0,1,8.3,5.74A15.14,15.14,0,0,1,676.12,842.42Zm-31.47,8c-.12,0-.18.06-.18.17h.18Zm.85-2.56-.51.85.34.17Zm.17-.35-.17.18h.17Zm2.74-3.76c0-.23,0-.37.08-.43s.09-.2.09-.43l.51-.17a.7.7,0,0,0-.51.17l-.86,1.37-.34.52V845a3.79,3.79,0,0,0-.6.77c-.17.28-.37.6-.6.94a2.27,2.27,0,0,0,1.2-1.71l.34-.69Zm-.34,12c-.12.11-.17.4-.17.85h.17Zm.51-7.53v0Zm.17,6.5a17.72,17.72,0,0,1,2.57-5.39,26.58,26.58,0,0,0,2.91-5.39,26.93,26.93,0,0,0-3.66,5A11.59,11.59,0,0,0,648.75,854.74Zm.69-8.55a1.43,1.43,0,0,0-.17.68A1,1,0,0,0,649.44,846.19Zm1-1a1,1,0,0,0-.25.43c-.06.17-.15.25-.26.25h.17A1,1,0,0,0,650.46,845.16Zm16.6-5.82a16,16,0,0,0-5.48,2.48,22.85,22.85,0,0,0-4.53,4.19,25.34,25.34,0,0,0-3.34,5.31,23.49,23.49,0,0,0-1.88,5.64,10.36,10.36,0,0,0,5-2.05,27.45,27.45,0,0,0,5-4.36,28,28,0,0,0,3.77-5.31,11.08,11.08,0,0,0,1.54-5.21Zm-12.15,4.11c-.11,0-.29.11-.51.34l.68-.34v-.17Zm11.12,5.3a1,1,0,0,0-.17.69l-.51.34.51-.17v-.17Zm.86-1a3.37,3.37,0,0,0,.34-.86l-.34.68Zm.85-1.89a.3.3,0,0,0,.34-.34h-.34Zm1,6.5-.34.35Zm0-3.59h.17l.17-.51Zm.17,3.59a.66.66,0,0,0,.51-.17A.7.7,0,0,0,668.94,852.34Zm3.93-6.5c-.23.35-.51.8-.85,1.37s-.71,1.17-1.11,1.8a20.55,20.55,0,0,0-1,1.79,3.31,3.31,0,0,0-.43,1.2,11.12,11.12,0,0,0,2.14-2.91A20.15,20.15,0,0,0,672.87,845.84Z" transform="translate(-511.03 -761.5)"/><path class="cls-1" d="M686.9,887.42a10,10,0,0,1-6.93-2.91,9,9,0,0,1-3.16-6.85,50.46,50.46,0,0,1,1-8.64c.64-3.47,1.45-7.07,2.43-10.77s2-7.3,2.95-10.78,1.83-6.42,2.52-8.81c.7-2.17,1.36-4.48,2-6.93a28.51,28.51,0,0,0,1-7.1,4.77,4.77,0,0,0-.17-1.28c-.11-.4-.23-.83-.34-1.29.23-.57.79-.85,1.69-.85a3.13,3.13,0,0,1,1.18.43l1.18.59a12.54,12.54,0,0,1,5,4.62,12.34,12.34,0,0,1,1.94,6.68,47.77,47.77,0,0,1-1.11,9.23q-1.12,5.49-2.66,11.21T692,865.18q-1.8,5.48-3,9.23l.35.17q7.19-9.92,14.2-19.76t15-19.07l6.16-7.19q3.07-3.59,6.33-7c.68-.68,1.37-1.34,2.05-2a5.54,5.54,0,0,1,2.4-1.28,11.76,11.76,0,0,1,2.82.85,16.56,16.56,0,0,1,3.17,1.8,12.87,12.87,0,0,1,2.56,2.4,4.36,4.36,0,0,1,1,2.82,9.84,9.84,0,0,1-.43,2.39c-.28,1-.63,2.14-1,3.34s-.79,2.34-1.19,3.42-.72,1.91-.94,2.48c-1.15,3-2.68,7.13-4.62,12.49s-3.83,11-5.65,16.77-3.39,11.37-4.7,16.68a54.75,54.75,0,0,0-2,12.23,4.36,4.36,0,0,0,2.05,4.11,1.52,1.52,0,0,1-1.71,1.71,11.47,11.47,0,0,1-5.9-1.37,9.68,9.68,0,0,1-3.59-3.68,15,15,0,0,1-1.71-5.22,40.41,40.41,0,0,1-.43-6,48,48,0,0,1,.85-8.72c.57-3.08,1.29-6.19,2.14-9.33s1.8-6.24,2.82-9.32,1.94-5.93,2.74-8.55a71.82,71.82,0,0,1,2.74-7.53c1-2.4,2-4.85,2.91-7.36a2.44,2.44,0,0,1-.77.52,2.16,2.16,0,0,0-.77.51,105.82,105.82,0,0,0-10.44,12.57q-4.79,6.76-9.07,13.6-1.36,2.24-3.5,5.74c-1.43,2.33-2.94,4.73-4.54,7.18s-3.16,4.74-4.7,6.84a31.73,31.73,0,0,1-4,4.71A4.12,4.12,0,0,1,686.9,887.42Zm5.31-7.87.34-.69A1,1,0,0,0,692.21,879.55Zm5.64-14a10.35,10.35,0,0,0-1.45,1.79c-.4.63-.77,1.23-1.12,1.8a7.81,7.81,0,0,0,1.37-1.8A13,13,0,0,1,697.85,865.52Zm-1.37,8,.69-.86a5.58,5.58,0,0,1,.34-.6,5.15,5.15,0,0,0,.34-.59,7.07,7.07,0,0,0-.77.94A4.09,4.09,0,0,0,696.48,873.56Zm1-3.25-.17.17A.15.15,0,0,0,697.51,870.31Zm1.88-6.85a2.91,2.91,0,0,1,.77-1.19,5.8,5.8,0,0,0,.94-1,18.14,18.14,0,0,0,1.8-2.48c.51-.86,1.05-1.74,1.62-2.65a128.27,128.27,0,0,1,12.83-16.25q7-7.53,13.52-15.74l.51-.69-.34-.34q-6.51,7-12.75,14.2a176.63,176.63,0,0,0-11.71,15.05q-2.05,2.91-4.2,5.82a37.23,37.23,0,0,0-3.67,6.16Zm-.34,4.79v-.17l-.17.17Zm.34.86a24.92,24.92,0,0,0,1.54-2.05c.45-.69.91-1.43,1.37-2.23A19.08,19.08,0,0,0,699.39,869.11ZM702,863h-.52a1,1,0,0,1-.34.69H702l.17-.52Zm2.56-1.88a16,16,0,0,1-1.19,1.71,6.06,6.06,0,0,0-1,1.88A13.65,13.65,0,0,0,704.52,861.07Zm-1.54.51-.34-.17v.51a.72.72,0,0,0,.17.52,1,1,0,0,0,.17-.69h.69A1,1,0,0,0,703,861.58Zm-.34,4.28v.34l.17-.17Zm1-5.47h-.34v.34a.66.66,0,0,0,.17.51v.34c0,.12,0,.17.17.17v-1a.71.71,0,0,0,.51-.17h-.34A.15.15,0,0,1,703.67,860.39Zm.85-1-.34-.17v.51a1,1,0,0,0,.17.69c0-.57.23-.86.69-.86A.74.74,0,0,0,704.52,859.36Zm.52-1.2h-.18v.34a2.32,2.32,0,0,1,.18,1,2.46,2.46,0,0,0,.17-1l.34-.17h-.34C705.09,858.33,705,858.28,705,858.16Zm.68,1.54.17-.68-.51,1Zm8-10.78.69-1h.34l.85-.86a13.56,13.56,0,0,1,1-1.45,18.34,18.34,0,0,1,1.2-1.46c.11-.22.4-.68.85-1.37a18,18,0,0,1,1.63-2l1.79-2a6.09,6.09,0,0,1,1.2-1.11l-.34-.17v-.68c-.91,1-1.8,2.05-2.65,3.08a15.36,15.36,0,0,1-3,2.73,18.68,18.68,0,0,1,1.89-2.56q1.53-1.89,3.33-4t3.51-4.11c1.14-1.31,1.94-2.25,2.39-2.82a177.08,177.08,0,0,0-12.14,13.43q-5.66,6.93-10.78,14.45v.52l.17.68a37.53,37.53,0,0,1,2.22-3.16l2.4-3a14.11,14.11,0,0,1-.68,1.71l1.19-.68h.34c.35-.46.66-.88.95-1.28a7.35,7.35,0,0,0,.77-1.46l.51-.34a1.88,1.88,0,0,1,.68-.86Zm-5.3,6.5-1.37,2.06a4,4,0,0,1,1-.69v-.17A1.7,1.7,0,0,0,708.46,855.42Zm0,1.2-.17.17v.34A.7.7,0,0,0,708.46,856.62ZM722,884.85h.17v-.51H722Zm1.37-6-1.2,4.28.52.17a12.69,12.69,0,0,0,.43-2.22C723.14,880.4,723.23,879.66,723.34,878.86Zm18.48-52.35-.51-.17q-2.74,5.48-5.31,12.06t-4.87,13.52q-2.31,6.93-4.28,13.85t-3.51,12.75a4,4,0,0,0,.69-1,110,110,0,0,0,3.76-11.8q1.55-6,3.59-11.81,2.4-7,5.22-13.68T741.82,826.51Zm-16.94,9.07a7.11,7.11,0,0,0,.86-1,2.57,2.57,0,0,1,1-.85,2.62,2.62,0,0,1,.86-1,1.34,1.34,0,0,0,.51-1.2l1.88-2.56-6.67,7.35a2.78,2.78,0,0,1,.69-.51A1.92,1.92,0,0,1,724.88,835.58Zm2.74,7.87.17-.17h-.17Zm1.2-3.25c0,.11,0,.17-.09.17s-.08.06-.08.17h.17Zm.68-2.23-.51,1.2.51.17Zm0,0,.51-.34q1.2-2.57,2.48-5.13c.86-1.71,1.74-3.42,2.66-5.13v-.86a44.39,44.39,0,0,0-3,5.65C731.3,834.1,730.41,836,729.5,838Zm7.7-8.38a20.16,20.16,0,0,0-1.45,2.74c-.41.91-.77,1.88-1.12,2.91.46-.92.91-1.86,1.37-2.83S736.86,830.5,737.2,829.59Zm1.2-2.74-.17-.17v.69Z" transform="translate(-511.03 -761.5)"/></svg>